G04 #@! TF.GenerationSoftware,KiCad,Pcbnew,(5.0.0)*
G04 #@! TF.CreationDate,2019-02-17T23:19:19-05:00*
G04 #@! TF.ProjectId,smd test,736D6420746573742E6B696361645F70,rev?*
G04 #@! TF.SameCoordinates,Original*
G04 #@! TF.FileFunction,Legend,Bot*
G04 #@! TF.FilePolarity,Positive*
%FSLAX46Y46*%
G04 Gerber Fmt 4.6, Leading zero omitted, Abs format (unit mm)*
G04 Created by KiCad (PCBNEW (5.0.0)) date 02/17/19 23:19:19*
%MOMM*%
%LPD*%
G01*
G04 APERTURE LIST*
%ADD10C,0.250000*%
%ADD11C,0.175000*%
%ADD12C,0.300000*%
%ADD13C,0.200000*%
%ADD14C,0.120000*%
%ADD15C,0.010000*%
G04 APERTURE END LIST*
D10*
X190333333Y-55827380D02*
X190333333Y-55303571D01*
X190380952Y-55208333D01*
X190476190Y-55160714D01*
X190666666Y-55160714D01*
X190761904Y-55208333D01*
X190333333Y-55779761D02*
X190428571Y-55827380D01*
X190666666Y-55827380D01*
X190761904Y-55779761D01*
X190809523Y-55684523D01*
X190809523Y-55589285D01*
X190761904Y-55494047D01*
X190666666Y-55446428D01*
X190428571Y-55446428D01*
X190333333Y-55398809D01*
X189190476Y-54827380D02*
X188952380Y-55827380D01*
X188761904Y-55113095D01*
X188571428Y-55827380D01*
X188333333Y-54827380D01*
X187952380Y-55827380D02*
X187952380Y-55160714D01*
X187952380Y-54827380D02*
X188000000Y-54875000D01*
X187952380Y-54922619D01*
X187904761Y-54875000D01*
X187952380Y-54827380D01*
X187952380Y-54922619D01*
X187333333Y-55827380D02*
X187428571Y-55779761D01*
X187476190Y-55684523D01*
X187476190Y-54827380D01*
X186809523Y-55827380D02*
X186904761Y-55779761D01*
X186952380Y-55684523D01*
X186952380Y-54827380D01*
X185333333Y-55303571D02*
X185190476Y-55351190D01*
X185142857Y-55398809D01*
X185095238Y-55494047D01*
X185095238Y-55636904D01*
X185142857Y-55732142D01*
X185190476Y-55779761D01*
X185285714Y-55827380D01*
X185666666Y-55827380D01*
X185666666Y-54827380D01*
X185333333Y-54827380D01*
X185238095Y-54875000D01*
X185190476Y-54922619D01*
X185142857Y-55017857D01*
X185142857Y-55113095D01*
X185190476Y-55208333D01*
X185238095Y-55255952D01*
X185333333Y-55303571D01*
X185666666Y-55303571D01*
X184666666Y-55827380D02*
X184666666Y-55160714D01*
X184666666Y-54827380D02*
X184714285Y-54875000D01*
X184666666Y-54922619D01*
X184619047Y-54875000D01*
X184666666Y-54827380D01*
X184666666Y-54922619D01*
X183761904Y-55779761D02*
X183857142Y-55827380D01*
X184047619Y-55827380D01*
X184142857Y-55779761D01*
X184190476Y-55732142D01*
X184238095Y-55636904D01*
X184238095Y-55351190D01*
X184190476Y-55255952D01*
X184142857Y-55208333D01*
X184047619Y-55160714D01*
X183857142Y-55160714D01*
X183761904Y-55208333D01*
X183333333Y-55827380D02*
X183333333Y-54827380D01*
X183238095Y-55446428D02*
X182952380Y-55827380D01*
X182952380Y-55160714D02*
X183333333Y-55541666D01*
X182571428Y-55779761D02*
X182476190Y-55827380D01*
X182285714Y-55827380D01*
X182190476Y-55779761D01*
X182142857Y-55684523D01*
X182142857Y-55636904D01*
X182190476Y-55541666D01*
X182285714Y-55494047D01*
X182428571Y-55494047D01*
X182523809Y-55446428D01*
X182571428Y-55351190D01*
X182571428Y-55303571D01*
X182523809Y-55208333D01*
X182428571Y-55160714D01*
X182285714Y-55160714D01*
X182190476Y-55208333D01*
X180952380Y-55160714D02*
X180952380Y-56160714D01*
X180952380Y-55208333D02*
X180857142Y-55160714D01*
X180666666Y-55160714D01*
X180571428Y-55208333D01*
X180523809Y-55255952D01*
X180476190Y-55351190D01*
X180476190Y-55636904D01*
X180523809Y-55732142D01*
X180571428Y-55779761D01*
X180666666Y-55827380D01*
X180857142Y-55827380D01*
X180952380Y-55779761D01*
X180047619Y-55827380D02*
X180047619Y-55160714D01*
X180047619Y-55351190D02*
X180000000Y-55255952D01*
X179952380Y-55208333D01*
X179857142Y-55160714D01*
X179761904Y-55160714D01*
X179285714Y-55827380D02*
X179380952Y-55779761D01*
X179428571Y-55732142D01*
X179476190Y-55636904D01*
X179476190Y-55351190D01*
X179428571Y-55255952D01*
X179380952Y-55208333D01*
X179285714Y-55160714D01*
X179142857Y-55160714D01*
X179047619Y-55208333D01*
X179000000Y-55255952D01*
X178952380Y-55351190D01*
X178952380Y-55636904D01*
X179000000Y-55732142D01*
X179047619Y-55779761D01*
X179142857Y-55827380D01*
X179285714Y-55827380D01*
X178523809Y-55160714D02*
X178523809Y-56017857D01*
X178571428Y-56113095D01*
X178666666Y-56160714D01*
X178714285Y-56160714D01*
X178523809Y-54827380D02*
X178571428Y-54875000D01*
X178523809Y-54922619D01*
X178476190Y-54875000D01*
X178523809Y-54827380D01*
X178523809Y-54922619D01*
X177666666Y-55779761D02*
X177761904Y-55827380D01*
X177952380Y-55827380D01*
X178047619Y-55779761D01*
X178095238Y-55684523D01*
X178095238Y-55303571D01*
X178047619Y-55208333D01*
X177952380Y-55160714D01*
X177761904Y-55160714D01*
X177666666Y-55208333D01*
X177619047Y-55303571D01*
X177619047Y-55398809D01*
X178095238Y-55494047D01*
X176761904Y-55779761D02*
X176857142Y-55827380D01*
X177047619Y-55827380D01*
X177142857Y-55779761D01*
X177190476Y-55732142D01*
X177238095Y-55636904D01*
X177238095Y-55351190D01*
X177190476Y-55255952D01*
X177142857Y-55208333D01*
X177047619Y-55160714D01*
X176857142Y-55160714D01*
X176761904Y-55208333D01*
X176476190Y-55160714D02*
X176095238Y-55160714D01*
X176333333Y-54827380D02*
X176333333Y-55684523D01*
X176285714Y-55779761D01*
X176190476Y-55827380D01*
X176095238Y-55827380D01*
X190142857Y-57577380D02*
X190142857Y-56577380D01*
X190142857Y-56958333D02*
X190047619Y-56910714D01*
X189857142Y-56910714D01*
X189761904Y-56958333D01*
X189714285Y-57005952D01*
X189666666Y-57101190D01*
X189666666Y-57386904D01*
X189714285Y-57482142D01*
X189761904Y-57529761D01*
X189857142Y-57577380D01*
X190047619Y-57577380D01*
X190142857Y-57529761D01*
X189238095Y-57577380D02*
X189238095Y-56910714D01*
X189238095Y-56577380D02*
X189285714Y-56625000D01*
X189238095Y-56672619D01*
X189190476Y-56625000D01*
X189238095Y-56577380D01*
X189238095Y-56672619D01*
X188333333Y-57529761D02*
X188428571Y-57577380D01*
X188619047Y-57577380D01*
X188714285Y-57529761D01*
X188761904Y-57482142D01*
X188809523Y-57386904D01*
X188809523Y-57101190D01*
X188761904Y-57005952D01*
X188714285Y-56958333D01*
X188619047Y-56910714D01*
X188428571Y-56910714D01*
X188333333Y-56958333D01*
X187904761Y-57577380D02*
X187904761Y-56577380D01*
X187809523Y-57196428D02*
X187523809Y-57577380D01*
X187523809Y-56910714D02*
X187904761Y-57291666D01*
X187142857Y-57529761D02*
X187047619Y-57577380D01*
X186857142Y-57577380D01*
X186761904Y-57529761D01*
X186714285Y-57434523D01*
X186714285Y-57386904D01*
X186761904Y-57291666D01*
X186857142Y-57244047D01*
X187000000Y-57244047D01*
X187095238Y-57196428D01*
X187142857Y-57101190D01*
X187142857Y-57053571D01*
X187095238Y-56958333D01*
X187000000Y-56910714D01*
X186857142Y-56910714D01*
X186761904Y-56958333D01*
X186285714Y-57482142D02*
X186238095Y-57529761D01*
X186285714Y-57577380D01*
X186333333Y-57529761D01*
X186285714Y-57482142D01*
X186285714Y-57577380D01*
X185380952Y-56910714D02*
X185380952Y-57577380D01*
X185809523Y-56910714D02*
X185809523Y-57434523D01*
X185761904Y-57529761D01*
X185666666Y-57577380D01*
X185523809Y-57577380D01*
X185428571Y-57529761D01*
X185380952Y-57482142D01*
X184952380Y-57529761D02*
X184857142Y-57577380D01*
X184666666Y-57577380D01*
X184571428Y-57529761D01*
X184523809Y-57434523D01*
X184523809Y-57386904D01*
X184571428Y-57291666D01*
X184666666Y-57244047D01*
X184809523Y-57244047D01*
X184904761Y-57196428D01*
X184952380Y-57101190D01*
X184952380Y-57053571D01*
X184904761Y-56958333D01*
X184809523Y-56910714D01*
X184666666Y-56910714D01*
X184571428Y-56958333D01*
X183380952Y-56529761D02*
X184238095Y-57815476D01*
X183047619Y-56910714D02*
X183047619Y-57910714D01*
X183047619Y-56958333D02*
X182952380Y-56910714D01*
X182761904Y-56910714D01*
X182666666Y-56958333D01*
X182619047Y-57005952D01*
X182571428Y-57101190D01*
X182571428Y-57386904D01*
X182619047Y-57482142D01*
X182666666Y-57529761D01*
X182761904Y-57577380D01*
X182952380Y-57577380D01*
X183047619Y-57529761D01*
X182142857Y-56910714D02*
X182142857Y-57577380D01*
X182142857Y-57005952D02*
X182095238Y-56958333D01*
X182000000Y-56910714D01*
X181857142Y-56910714D01*
X181761904Y-56958333D01*
X181714285Y-57053571D01*
X181714285Y-57577380D01*
X181238095Y-56910714D02*
X181238095Y-57910714D01*
X181238095Y-56958333D02*
X181142857Y-56910714D01*
X180952380Y-56910714D01*
X180857142Y-56958333D01*
X180809523Y-57005952D01*
X180761904Y-57101190D01*
X180761904Y-57386904D01*
X180809523Y-57482142D01*
X180857142Y-57529761D01*
X180952380Y-57577380D01*
X181142857Y-57577380D01*
X181238095Y-57529761D01*
X180571428Y-57672619D02*
X179809523Y-57672619D01*
X179571428Y-56910714D02*
X179571428Y-57910714D01*
X179571428Y-56958333D02*
X179476190Y-56910714D01*
X179285714Y-56910714D01*
X179190476Y-56958333D01*
X179142857Y-57005952D01*
X179095238Y-57101190D01*
X179095238Y-57386904D01*
X179142857Y-57482142D01*
X179190476Y-57529761D01*
X179285714Y-57577380D01*
X179476190Y-57577380D01*
X179571428Y-57529761D01*
X178666666Y-57577380D02*
X178666666Y-56910714D01*
X178666666Y-57101190D02*
X178619047Y-57005952D01*
X178571428Y-56958333D01*
X178476190Y-56910714D01*
X178380952Y-56910714D01*
X177666666Y-57529761D02*
X177761904Y-57577380D01*
X177952380Y-57577380D01*
X178047619Y-57529761D01*
X178095238Y-57434523D01*
X178095238Y-57053571D01*
X178047619Y-56958333D01*
X177952380Y-56910714D01*
X177761904Y-56910714D01*
X177666666Y-56958333D01*
X177619047Y-57053571D01*
X177619047Y-57148809D01*
X178095238Y-57244047D01*
X177238095Y-57529761D02*
X177142857Y-57577380D01*
X176952380Y-57577380D01*
X176857142Y-57529761D01*
X176809523Y-57434523D01*
X176809523Y-57386904D01*
X176857142Y-57291666D01*
X176952380Y-57244047D01*
X177095238Y-57244047D01*
X177190476Y-57196428D01*
X177238095Y-57101190D01*
X177238095Y-57053571D01*
X177190476Y-56958333D01*
X177095238Y-56910714D01*
X176952380Y-56910714D01*
X176857142Y-56958333D01*
D11*
X160716666Y-71520833D02*
X160783333Y-71487500D01*
X160850000Y-71420833D01*
X160950000Y-71320833D01*
X161016666Y-71287500D01*
X161083333Y-71287500D01*
X161050000Y-71454166D02*
X161116666Y-71420833D01*
X161183333Y-71354166D01*
X161216666Y-71220833D01*
X161216666Y-70987500D01*
X161183333Y-70854166D01*
X161116666Y-70787500D01*
X161050000Y-70754166D01*
X160916666Y-70754166D01*
X160850000Y-70787500D01*
X160783333Y-70854166D01*
X160750000Y-70987500D01*
X160750000Y-71220833D01*
X160783333Y-71354166D01*
X160850000Y-71420833D01*
X160916666Y-71454166D01*
X161050000Y-71454166D01*
X160216666Y-71087500D02*
X160450000Y-71087500D01*
X160450000Y-71454166D02*
X160450000Y-70754166D01*
X160116666Y-70754166D01*
X159850000Y-71454166D02*
X159850000Y-70754166D01*
X159450000Y-71454166D01*
X159450000Y-70754166D01*
X159116666Y-71187500D02*
X158583333Y-71187500D01*
X157950000Y-70754166D02*
X158083333Y-70754166D01*
X158150000Y-70787500D01*
X158183333Y-70820833D01*
X158250000Y-70920833D01*
X158283333Y-71054166D01*
X158283333Y-71320833D01*
X158250000Y-71387500D01*
X158216666Y-71420833D01*
X158150000Y-71454166D01*
X158016666Y-71454166D01*
X157950000Y-71420833D01*
X157916666Y-71387500D01*
X157883333Y-71320833D01*
X157883333Y-71154166D01*
X157916666Y-71087500D01*
X157950000Y-71054166D01*
X158016666Y-71020833D01*
X158150000Y-71020833D01*
X158216666Y-71054166D01*
X158250000Y-71087500D01*
X158283333Y-71154166D01*
X157283333Y-70987500D02*
X157283333Y-71454166D01*
X157450000Y-70720833D02*
X157616666Y-71220833D01*
X157183333Y-71220833D01*
X156350000Y-71454166D02*
X156216666Y-71454166D01*
X156150000Y-71420833D01*
X156116666Y-71387500D01*
X156050000Y-71287500D01*
X156016666Y-71154166D01*
X156016666Y-70887500D01*
X156050000Y-70820833D01*
X156083333Y-70787500D01*
X156150000Y-70754166D01*
X156283333Y-70754166D01*
X156350000Y-70787500D01*
X156383333Y-70820833D01*
X156416666Y-70887500D01*
X156416666Y-71054166D01*
X156383333Y-71120833D01*
X156350000Y-71154166D01*
X156283333Y-71187500D01*
X156150000Y-71187500D01*
X156083333Y-71154166D01*
X156050000Y-71120833D01*
X156016666Y-71054166D01*
X155783333Y-71454166D02*
X155416666Y-70987500D01*
X155783333Y-70987500D02*
X155416666Y-71454166D01*
X155116666Y-71454166D02*
X154983333Y-71454166D01*
X154916666Y-71420833D01*
X154883333Y-71387500D01*
X154816666Y-71287500D01*
X154783333Y-71154166D01*
X154783333Y-70887500D01*
X154816666Y-70820833D01*
X154850000Y-70787500D01*
X154916666Y-70754166D01*
X155050000Y-70754166D01*
X155116666Y-70787500D01*
X155150000Y-70820833D01*
X155183333Y-70887500D01*
X155183333Y-71054166D01*
X155150000Y-71120833D01*
X155116666Y-71154166D01*
X155050000Y-71187500D01*
X154916666Y-71187500D01*
X154850000Y-71154166D01*
X154816666Y-71120833D01*
X154783333Y-71054166D01*
X160016666Y-72679166D02*
X160250000Y-72345833D01*
X160416666Y-72679166D02*
X160416666Y-71979166D01*
X160150000Y-71979166D01*
X160083333Y-72012500D01*
X160050000Y-72045833D01*
X160016666Y-72112500D01*
X160016666Y-72212500D01*
X160050000Y-72279166D01*
X160083333Y-72312500D01*
X160150000Y-72345833D01*
X160416666Y-72345833D01*
X159816666Y-71979166D02*
X159416666Y-71979166D01*
X159616666Y-72679166D02*
X159616666Y-71979166D01*
X158850000Y-72679166D02*
X159183333Y-72679166D01*
X159183333Y-71979166D01*
X158516666Y-72279166D02*
X158583333Y-72245833D01*
X158616666Y-72212500D01*
X158650000Y-72145833D01*
X158650000Y-72112500D01*
X158616666Y-72045833D01*
X158583333Y-72012500D01*
X158516666Y-71979166D01*
X158383333Y-71979166D01*
X158316666Y-72012500D01*
X158283333Y-72045833D01*
X158250000Y-72112500D01*
X158250000Y-72145833D01*
X158283333Y-72212500D01*
X158316666Y-72245833D01*
X158383333Y-72279166D01*
X158516666Y-72279166D01*
X158583333Y-72312500D01*
X158616666Y-72345833D01*
X158650000Y-72412500D01*
X158650000Y-72545833D01*
X158616666Y-72612500D01*
X158583333Y-72645833D01*
X158516666Y-72679166D01*
X158383333Y-72679166D01*
X158316666Y-72645833D01*
X158283333Y-72612500D01*
X158250000Y-72545833D01*
X158250000Y-72412500D01*
X158283333Y-72345833D01*
X158316666Y-72312500D01*
X158383333Y-72279166D01*
X157583333Y-72679166D02*
X157983333Y-72679166D01*
X157783333Y-72679166D02*
X157783333Y-71979166D01*
X157850000Y-72079166D01*
X157916666Y-72145833D01*
X157983333Y-72179166D01*
X156916666Y-72679166D02*
X157316666Y-72679166D01*
X157116666Y-72679166D02*
X157116666Y-71979166D01*
X157183333Y-72079166D01*
X157250000Y-72145833D01*
X157316666Y-72179166D01*
X156250000Y-72679166D02*
X156650000Y-72679166D01*
X156450000Y-72679166D02*
X156450000Y-71979166D01*
X156516666Y-72079166D01*
X156583333Y-72145833D01*
X156650000Y-72179166D01*
X155550000Y-72612500D02*
X155583333Y-72645833D01*
X155683333Y-72679166D01*
X155750000Y-72679166D01*
X155850000Y-72645833D01*
X155916666Y-72579166D01*
X155950000Y-72512500D01*
X155983333Y-72379166D01*
X155983333Y-72279166D01*
X155950000Y-72145833D01*
X155916666Y-72079166D01*
X155850000Y-72012500D01*
X155750000Y-71979166D01*
X155683333Y-71979166D01*
X155583333Y-72012500D01*
X155550000Y-72045833D01*
D10*
X163547619Y-51102380D02*
X162880952Y-51102380D01*
X163309523Y-52102380D01*
X161738095Y-52102380D02*
X161738095Y-51435714D01*
X161738095Y-51530952D02*
X161690476Y-51483333D01*
X161595238Y-51435714D01*
X161452380Y-51435714D01*
X161357142Y-51483333D01*
X161309523Y-51578571D01*
X161309523Y-52102380D01*
X161309523Y-51578571D02*
X161261904Y-51483333D01*
X161166666Y-51435714D01*
X161023809Y-51435714D01*
X160928571Y-51483333D01*
X160880952Y-51578571D01*
X160880952Y-52102380D01*
X160404761Y-52102380D02*
X160404761Y-51435714D01*
X160404761Y-51530952D02*
X160357142Y-51483333D01*
X160261904Y-51435714D01*
X160119047Y-51435714D01*
X160023809Y-51483333D01*
X159976190Y-51578571D01*
X159976190Y-52102380D01*
X159976190Y-51578571D02*
X159928571Y-51483333D01*
X159833333Y-51435714D01*
X159690476Y-51435714D01*
X159595238Y-51483333D01*
X159547619Y-51578571D01*
X159547619Y-52102380D01*
X165000000Y-53750000D02*
X158000000Y-53750000D01*
X165000000Y-53750000D02*
X165000000Y-53163579D01*
X158000000Y-53750000D02*
X158000000Y-53163579D01*
X158000000Y-53750000D02*
X159126504Y-53163579D01*
X158000000Y-53750000D02*
X159126504Y-54336421D01*
X165000000Y-53750000D02*
X163873496Y-53163579D01*
X165000000Y-53750000D02*
X163873496Y-54336421D01*
X156547619Y-51102380D02*
X155880952Y-51102380D01*
X156309523Y-52102380D01*
X154738095Y-52102380D02*
X154738095Y-51435714D01*
X154738095Y-51530952D02*
X154690476Y-51483333D01*
X154595238Y-51435714D01*
X154452380Y-51435714D01*
X154357142Y-51483333D01*
X154309523Y-51578571D01*
X154309523Y-52102380D01*
X154309523Y-51578571D02*
X154261904Y-51483333D01*
X154166666Y-51435714D01*
X154023809Y-51435714D01*
X153928571Y-51483333D01*
X153880952Y-51578571D01*
X153880952Y-52102380D01*
X153404761Y-52102380D02*
X153404761Y-51435714D01*
X153404761Y-51530952D02*
X153357142Y-51483333D01*
X153261904Y-51435714D01*
X153119047Y-51435714D01*
X153023809Y-51483333D01*
X152976190Y-51578571D01*
X152976190Y-52102380D01*
X152976190Y-51578571D02*
X152928571Y-51483333D01*
X152833333Y-51435714D01*
X152690476Y-51435714D01*
X152595238Y-51483333D01*
X152547619Y-51578571D01*
X152547619Y-52102380D01*
X151000000Y-53750000D02*
X158000000Y-53750000D01*
X151000000Y-54750000D02*
X151000000Y-53163579D01*
X158000000Y-54750000D02*
X158000000Y-53163579D01*
X158000000Y-53750000D02*
X156873496Y-54336421D01*
X158000000Y-53750000D02*
X156873496Y-53163579D01*
X151000000Y-53750000D02*
X152126504Y-54336421D01*
X151000000Y-53750000D02*
X152126504Y-53163579D01*
X170552380Y-58202380D02*
X170552380Y-58869047D01*
X171552380Y-58440476D01*
X171552380Y-60011904D02*
X170885714Y-60011904D01*
X170980952Y-60011904D02*
X170933333Y-60059523D01*
X170885714Y-60154761D01*
X170885714Y-60297619D01*
X170933333Y-60392857D01*
X171028571Y-60440476D01*
X171552380Y-60440476D01*
X171028571Y-60440476D02*
X170933333Y-60488095D01*
X170885714Y-60583333D01*
X170885714Y-60726190D01*
X170933333Y-60821428D01*
X171028571Y-60869047D01*
X171552380Y-60869047D01*
X171552380Y-61345238D02*
X170885714Y-61345238D01*
X170980952Y-61345238D02*
X170933333Y-61392857D01*
X170885714Y-61488095D01*
X170885714Y-61630952D01*
X170933333Y-61726190D01*
X171028571Y-61773809D01*
X171552380Y-61773809D01*
X171028571Y-61773809D02*
X170933333Y-61821428D01*
X170885714Y-61916666D01*
X170885714Y-62059523D01*
X170933333Y-62154761D01*
X171028571Y-62202380D01*
X171552380Y-62202380D01*
X169000000Y-63750000D02*
X169000000Y-56750000D01*
X169000000Y-63750000D02*
X169586421Y-63750000D01*
X169000000Y-56750000D02*
X169586421Y-56750000D01*
X169000000Y-56750000D02*
X169586421Y-57876504D01*
X169000000Y-56750000D02*
X168413579Y-57876504D01*
X169000000Y-63750000D02*
X169586421Y-62623496D01*
X169000000Y-63750000D02*
X168413579Y-62623496D01*
X170552380Y-65202380D02*
X170552380Y-65869047D01*
X171552380Y-65440476D01*
X171552380Y-67011904D02*
X170885714Y-67011904D01*
X170980952Y-67011904D02*
X170933333Y-67059523D01*
X170885714Y-67154761D01*
X170885714Y-67297619D01*
X170933333Y-67392857D01*
X171028571Y-67440476D01*
X171552380Y-67440476D01*
X171028571Y-67440476D02*
X170933333Y-67488095D01*
X170885714Y-67583333D01*
X170885714Y-67726190D01*
X170933333Y-67821428D01*
X171028571Y-67869047D01*
X171552380Y-67869047D01*
X171552380Y-68345238D02*
X170885714Y-68345238D01*
X170980952Y-68345238D02*
X170933333Y-68392857D01*
X170885714Y-68488095D01*
X170885714Y-68630952D01*
X170933333Y-68726190D01*
X171028571Y-68773809D01*
X171552380Y-68773809D01*
X171028571Y-68773809D02*
X170933333Y-68821428D01*
X170885714Y-68916666D01*
X170885714Y-69059523D01*
X170933333Y-69154761D01*
X171028571Y-69202380D01*
X171552380Y-69202380D01*
X169000000Y-70750000D02*
X169000000Y-63750000D01*
X167000000Y-70750000D02*
X169586421Y-70750000D01*
X167000000Y-63750000D02*
X169586421Y-63750000D01*
X169000000Y-63750000D02*
X169586421Y-64876504D01*
X169000000Y-63750000D02*
X168413579Y-64876504D01*
X169000000Y-70750000D02*
X169586421Y-69623496D01*
X169000000Y-70750000D02*
X168413579Y-69623496D01*
X179976190Y-73702380D02*
X180452380Y-73702380D01*
X180500000Y-74178571D01*
X180452380Y-74130952D01*
X180357142Y-74083333D01*
X180119047Y-74083333D01*
X180023809Y-74130952D01*
X179976190Y-74178571D01*
X179928571Y-74273809D01*
X179928571Y-74511904D01*
X179976190Y-74607142D01*
X180023809Y-74654761D01*
X180119047Y-74702380D01*
X180357142Y-74702380D01*
X180452380Y-74654761D01*
X180500000Y-74607142D01*
X178738095Y-74702380D02*
X178738095Y-74035714D01*
X178738095Y-74130952D02*
X178690476Y-74083333D01*
X178595238Y-74035714D01*
X178452380Y-74035714D01*
X178357142Y-74083333D01*
X178309523Y-74178571D01*
X178309523Y-74702380D01*
X178309523Y-74178571D02*
X178261904Y-74083333D01*
X178166666Y-74035714D01*
X178023809Y-74035714D01*
X177928571Y-74083333D01*
X177880952Y-74178571D01*
X177880952Y-74702380D01*
X177404761Y-74702380D02*
X177404761Y-74035714D01*
X177404761Y-74130952D02*
X177357142Y-74083333D01*
X177261904Y-74035714D01*
X177119047Y-74035714D01*
X177023809Y-74083333D01*
X176976190Y-74178571D01*
X176976190Y-74702380D01*
X176976190Y-74178571D02*
X176928571Y-74083333D01*
X176833333Y-74035714D01*
X176690476Y-74035714D01*
X176595238Y-74083333D01*
X176547619Y-74178571D01*
X176547619Y-74702380D01*
X176000000Y-75750000D02*
X181000000Y-75750000D01*
X176000000Y-76250000D02*
X176000000Y-75163579D01*
X181000000Y-76250000D02*
X181000000Y-75163579D01*
X181000000Y-75750000D02*
X179873496Y-76336421D01*
X181000000Y-75750000D02*
X179873496Y-75163579D01*
X176000000Y-75750000D02*
X177126504Y-76336421D01*
X176000000Y-75750000D02*
X177126504Y-75163579D01*
D12*
X185421428Y-78392857D02*
X185421428Y-77535714D01*
X185421428Y-77964285D02*
X186921428Y-77964285D01*
X186707142Y-77821428D01*
X186564285Y-77678571D01*
X186492857Y-77535714D01*
X186921428Y-79321428D02*
X186921428Y-79464285D01*
X186850000Y-79607142D01*
X186778571Y-79678571D01*
X186635714Y-79750000D01*
X186350000Y-79821428D01*
X185992857Y-79821428D01*
X185707142Y-79750000D01*
X185564285Y-79678571D01*
X185492857Y-79607142D01*
X185421428Y-79464285D01*
X185421428Y-79321428D01*
X185492857Y-79178571D01*
X185564285Y-79107142D01*
X185707142Y-79035714D01*
X185992857Y-78964285D01*
X186350000Y-78964285D01*
X186635714Y-79035714D01*
X186778571Y-79107142D01*
X186850000Y-79178571D01*
X186921428Y-79321428D01*
X185564285Y-80464285D02*
X185492857Y-80535714D01*
X185421428Y-80464285D01*
X185492857Y-80392857D01*
X185564285Y-80464285D01*
X185421428Y-80464285D01*
X186921428Y-81464285D02*
X186921428Y-81607142D01*
X186850000Y-81750000D01*
X186778571Y-81821428D01*
X186635714Y-81892857D01*
X186350000Y-81964285D01*
X185992857Y-81964285D01*
X185707142Y-81892857D01*
X185564285Y-81821428D01*
X185492857Y-81750000D01*
X185421428Y-81607142D01*
X185421428Y-81464285D01*
X185492857Y-81321428D01*
X185564285Y-81250000D01*
X185707142Y-81178571D01*
X185992857Y-81107142D01*
X186350000Y-81107142D01*
X186635714Y-81178571D01*
X186778571Y-81250000D01*
X186850000Y-81321428D01*
X186921428Y-81464285D01*
X186921428Y-82892857D02*
X186921428Y-83035714D01*
X186850000Y-83178571D01*
X186778571Y-83250000D01*
X186635714Y-83321428D01*
X186350000Y-83392857D01*
X185992857Y-83392857D01*
X185707142Y-83321428D01*
X185564285Y-83250000D01*
X185492857Y-83178571D01*
X185421428Y-83035714D01*
X185421428Y-82892857D01*
X185492857Y-82750000D01*
X185564285Y-82678571D01*
X185707142Y-82607142D01*
X185992857Y-82535714D01*
X186350000Y-82535714D01*
X186635714Y-82607142D01*
X186778571Y-82678571D01*
X186850000Y-82750000D01*
X186921428Y-82892857D01*
X186921428Y-84321428D02*
X186921428Y-84464285D01*
X186850000Y-84607142D01*
X186778571Y-84678571D01*
X186635714Y-84750000D01*
X186350000Y-84821428D01*
X185992857Y-84821428D01*
X185707142Y-84750000D01*
X185564285Y-84678571D01*
X185492857Y-84607142D01*
X185421428Y-84464285D01*
X185421428Y-84321428D01*
X185492857Y-84178571D01*
X185564285Y-84107142D01*
X185707142Y-84035714D01*
X185992857Y-83964285D01*
X186350000Y-83964285D01*
X186635714Y-84035714D01*
X186778571Y-84107142D01*
X186850000Y-84178571D01*
X186921428Y-84321428D01*
X185421428Y-86607142D02*
X186421428Y-86607142D01*
X186278571Y-86607142D02*
X186350000Y-86678571D01*
X186421428Y-86821428D01*
X186421428Y-87035714D01*
X186350000Y-87178571D01*
X186207142Y-87250000D01*
X185421428Y-87250000D01*
X186207142Y-87250000D02*
X186350000Y-87321428D01*
X186421428Y-87464285D01*
X186421428Y-87678571D01*
X186350000Y-87821428D01*
X186207142Y-87892857D01*
X185421428Y-87892857D01*
X185421428Y-88607142D02*
X186421428Y-88607142D01*
X186278571Y-88607142D02*
X186350000Y-88678571D01*
X186421428Y-88821428D01*
X186421428Y-89035714D01*
X186350000Y-89178571D01*
X186207142Y-89250000D01*
X185421428Y-89250000D01*
X186207142Y-89250000D02*
X186350000Y-89321428D01*
X186421428Y-89464285D01*
X186421428Y-89678571D01*
X186350000Y-89821428D01*
X186207142Y-89892857D01*
X185421428Y-89892857D01*
X184000000Y-78750000D02*
X184000000Y-88750000D01*
X183000000Y-78750000D02*
X184586421Y-78750000D01*
X183000000Y-88750000D02*
X184586421Y-88750000D01*
X184000000Y-88750000D02*
X183413579Y-87623496D01*
X184000000Y-88750000D02*
X184586421Y-87623496D01*
X184000000Y-78750000D02*
X183413579Y-79876504D01*
X184000000Y-78750000D02*
X184586421Y-79876504D01*
D11*
X178716666Y-91020833D02*
X178783333Y-90987500D01*
X178850000Y-90920833D01*
X178950000Y-90820833D01*
X179016666Y-90787500D01*
X179083333Y-90787500D01*
X179050000Y-90954166D02*
X179116666Y-90920833D01*
X179183333Y-90854166D01*
X179216666Y-90720833D01*
X179216666Y-90487500D01*
X179183333Y-90354166D01*
X179116666Y-90287500D01*
X179050000Y-90254166D01*
X178916666Y-90254166D01*
X178850000Y-90287500D01*
X178783333Y-90354166D01*
X178750000Y-90487500D01*
X178750000Y-90720833D01*
X178783333Y-90854166D01*
X178850000Y-90920833D01*
X178916666Y-90954166D01*
X179050000Y-90954166D01*
X178216666Y-90587500D02*
X178450000Y-90587500D01*
X178450000Y-90954166D02*
X178450000Y-90254166D01*
X178116666Y-90254166D01*
X177850000Y-90954166D02*
X177850000Y-90254166D01*
X177450000Y-90954166D01*
X177450000Y-90254166D01*
X177116666Y-90687500D02*
X176583333Y-90687500D01*
X175950000Y-90487500D02*
X175950000Y-90954166D01*
X176116666Y-90220833D02*
X176283333Y-90720833D01*
X175850000Y-90720833D01*
X175483333Y-90554166D02*
X175550000Y-90520833D01*
X175583333Y-90487500D01*
X175616666Y-90420833D01*
X175616666Y-90387500D01*
X175583333Y-90320833D01*
X175550000Y-90287500D01*
X175483333Y-90254166D01*
X175350000Y-90254166D01*
X175283333Y-90287500D01*
X175250000Y-90320833D01*
X175216666Y-90387500D01*
X175216666Y-90420833D01*
X175250000Y-90487500D01*
X175283333Y-90520833D01*
X175350000Y-90554166D01*
X175483333Y-90554166D01*
X175550000Y-90587500D01*
X175583333Y-90620833D01*
X175616666Y-90687500D01*
X175616666Y-90820833D01*
X175583333Y-90887500D01*
X175550000Y-90920833D01*
X175483333Y-90954166D01*
X175350000Y-90954166D01*
X175283333Y-90920833D01*
X175250000Y-90887500D01*
X175216666Y-90820833D01*
X175216666Y-90687500D01*
X175250000Y-90620833D01*
X175283333Y-90587500D01*
X175350000Y-90554166D01*
X174083333Y-90254166D02*
X174216666Y-90254166D01*
X174283333Y-90287500D01*
X174316666Y-90320833D01*
X174383333Y-90420833D01*
X174416666Y-90554166D01*
X174416666Y-90820833D01*
X174383333Y-90887500D01*
X174350000Y-90920833D01*
X174283333Y-90954166D01*
X174150000Y-90954166D01*
X174083333Y-90920833D01*
X174050000Y-90887500D01*
X174016666Y-90820833D01*
X174016666Y-90654166D01*
X174050000Y-90587500D01*
X174083333Y-90554166D01*
X174150000Y-90520833D01*
X174283333Y-90520833D01*
X174350000Y-90554166D01*
X174383333Y-90587500D01*
X174416666Y-90654166D01*
X173783333Y-90954166D02*
X173416666Y-90487500D01*
X173783333Y-90487500D02*
X173416666Y-90954166D01*
X172850000Y-90254166D02*
X172983333Y-90254166D01*
X173050000Y-90287500D01*
X173083333Y-90320833D01*
X173150000Y-90420833D01*
X173183333Y-90554166D01*
X173183333Y-90820833D01*
X173150000Y-90887500D01*
X173116666Y-90920833D01*
X173050000Y-90954166D01*
X172916666Y-90954166D01*
X172850000Y-90920833D01*
X172816666Y-90887500D01*
X172783333Y-90820833D01*
X172783333Y-90654166D01*
X172816666Y-90587500D01*
X172850000Y-90554166D01*
X172916666Y-90520833D01*
X173050000Y-90520833D01*
X173116666Y-90554166D01*
X173150000Y-90587500D01*
X173183333Y-90654166D01*
X177850000Y-91979166D02*
X177516666Y-91979166D01*
X177916666Y-92179166D02*
X177683333Y-91479166D01*
X177450000Y-92179166D01*
X177283333Y-91479166D02*
X176816666Y-92179166D01*
X176816666Y-91479166D02*
X177283333Y-92179166D01*
X176550000Y-92179166D02*
X176550000Y-91479166D01*
X176283333Y-91479166D01*
X176216666Y-91512500D01*
X176183333Y-91545833D01*
X176150000Y-91612500D01*
X176150000Y-91712500D01*
X176183333Y-91779166D01*
X176216666Y-91812500D01*
X176283333Y-91845833D01*
X176550000Y-91845833D01*
X175483333Y-92179166D02*
X175883333Y-92179166D01*
X175683333Y-92179166D02*
X175683333Y-91479166D01*
X175750000Y-91579166D01*
X175816666Y-91645833D01*
X175883333Y-91679166D01*
X175150000Y-92179166D02*
X175016666Y-92179166D01*
X174950000Y-92145833D01*
X174916666Y-92112500D01*
X174850000Y-92012500D01*
X174816666Y-91879166D01*
X174816666Y-91612500D01*
X174850000Y-91545833D01*
X174883333Y-91512500D01*
X174950000Y-91479166D01*
X175083333Y-91479166D01*
X175150000Y-91512500D01*
X175183333Y-91545833D01*
X175216666Y-91612500D01*
X175216666Y-91779166D01*
X175183333Y-91845833D01*
X175150000Y-91879166D01*
X175083333Y-91912500D01*
X174950000Y-91912500D01*
X174883333Y-91879166D01*
X174850000Y-91845833D01*
X174816666Y-91779166D01*
X174483333Y-92179166D02*
X174350000Y-92179166D01*
X174283333Y-92145833D01*
X174250000Y-92112500D01*
X174183333Y-92012500D01*
X174150000Y-91879166D01*
X174150000Y-91612500D01*
X174183333Y-91545833D01*
X174216666Y-91512500D01*
X174283333Y-91479166D01*
X174416666Y-91479166D01*
X174483333Y-91512500D01*
X174516666Y-91545833D01*
X174550000Y-91612500D01*
X174550000Y-91779166D01*
X174516666Y-91845833D01*
X174483333Y-91879166D01*
X174416666Y-91912500D01*
X174283333Y-91912500D01*
X174216666Y-91879166D01*
X174183333Y-91845833D01*
X174150000Y-91779166D01*
D10*
X174865860Y-73702380D02*
X175342050Y-73702380D01*
X175389670Y-74178571D01*
X175342050Y-74130952D01*
X175246812Y-74083333D01*
X175008717Y-74083333D01*
X174913479Y-74130952D01*
X174865860Y-74178571D01*
X174818241Y-74273809D01*
X174818241Y-74511904D01*
X174865860Y-74607142D01*
X174913479Y-74654761D01*
X175008717Y-74702380D01*
X175246812Y-74702380D01*
X175342050Y-74654761D01*
X175389670Y-74607142D01*
X173627765Y-74702380D02*
X173627765Y-74035714D01*
X173627765Y-74130952D02*
X173580146Y-74083333D01*
X173484908Y-74035714D01*
X173342050Y-74035714D01*
X173246812Y-74083333D01*
X173199193Y-74178571D01*
X173199193Y-74702380D01*
X173199193Y-74178571D02*
X173151574Y-74083333D01*
X173056336Y-74035714D01*
X172913479Y-74035714D01*
X172818241Y-74083333D01*
X172770622Y-74178571D01*
X172770622Y-74702380D01*
X172294431Y-74702380D02*
X172294431Y-74035714D01*
X172294431Y-74130952D02*
X172246812Y-74083333D01*
X172151574Y-74035714D01*
X172008717Y-74035714D01*
X171913479Y-74083333D01*
X171865860Y-74178571D01*
X171865860Y-74702380D01*
X171865860Y-74178571D02*
X171818241Y-74083333D01*
X171723003Y-74035714D01*
X171580146Y-74035714D01*
X171484908Y-74083333D01*
X171437289Y-74178571D01*
X171437289Y-74702380D01*
X170889670Y-75750000D02*
X175889670Y-75750000D01*
X170889670Y-76250000D02*
X170889670Y-75163579D01*
X175889670Y-76250000D02*
X175889670Y-75163579D01*
X175889670Y-75750000D02*
X174763166Y-76336421D01*
X175889670Y-75750000D02*
X174763166Y-75163579D01*
X170889670Y-75750000D02*
X172016174Y-76336421D01*
X170889670Y-75750000D02*
X172016174Y-75163579D01*
D13*
X158500000Y-83750000D02*
X163500000Y-83750000D01*
X166000000Y-76250000D02*
X166000000Y-81250000D01*
X148500000Y-83750000D02*
X153500000Y-83750000D01*
X156000000Y-81250000D02*
X156000000Y-76250000D01*
D10*
X146547044Y-84801068D02*
X146547044Y-84324878D01*
X147023235Y-84277259D01*
X146975616Y-84324878D01*
X146927997Y-84420116D01*
X146927997Y-84658211D01*
X146975616Y-84753449D01*
X147023235Y-84801068D01*
X147118473Y-84848687D01*
X147356568Y-84848687D01*
X147451806Y-84801068D01*
X147499425Y-84753449D01*
X147547044Y-84658211D01*
X147547044Y-84420116D01*
X147499425Y-84324878D01*
X147451806Y-84277259D01*
X147547044Y-86039163D02*
X146880378Y-86039163D01*
X146975616Y-86039163D02*
X146927997Y-86086782D01*
X146880378Y-86182020D01*
X146880378Y-86324878D01*
X146927997Y-86420116D01*
X147023235Y-86467735D01*
X147547044Y-86467735D01*
X147023235Y-86467735D02*
X146927997Y-86515354D01*
X146880378Y-86610592D01*
X146880378Y-86753449D01*
X146927997Y-86848687D01*
X147023235Y-86896306D01*
X147547044Y-86896306D01*
X147547044Y-87372497D02*
X146880378Y-87372497D01*
X146975616Y-87372497D02*
X146927997Y-87420116D01*
X146880378Y-87515354D01*
X146880378Y-87658211D01*
X146927997Y-87753449D01*
X147023235Y-87801068D01*
X147547044Y-87801068D01*
X147023235Y-87801068D02*
X146927997Y-87848687D01*
X146880378Y-87943925D01*
X146880378Y-88086782D01*
X146927997Y-88182020D01*
X147023235Y-88229639D01*
X147547044Y-88229639D01*
X148594664Y-88777259D02*
X148594664Y-83777259D01*
X149094664Y-88777259D02*
X148008243Y-88777259D01*
X149094664Y-83777259D02*
X148008243Y-83777259D01*
X148594664Y-83777259D02*
X149181085Y-84903763D01*
X148594664Y-83777259D02*
X148008243Y-84903763D01*
X148594664Y-88777259D02*
X149181085Y-87650755D01*
X148594664Y-88777259D02*
X148008243Y-87650755D01*
X164976190Y-73702380D02*
X165452380Y-73702380D01*
X165500000Y-74178571D01*
X165452380Y-74130952D01*
X165357142Y-74083333D01*
X165119047Y-74083333D01*
X165023809Y-74130952D01*
X164976190Y-74178571D01*
X164928571Y-74273809D01*
X164928571Y-74511904D01*
X164976190Y-74607142D01*
X165023809Y-74654761D01*
X165119047Y-74702380D01*
X165357142Y-74702380D01*
X165452380Y-74654761D01*
X165500000Y-74607142D01*
X163738095Y-74702380D02*
X163738095Y-74035714D01*
X163738095Y-74130952D02*
X163690476Y-74083333D01*
X163595238Y-74035714D01*
X163452380Y-74035714D01*
X163357142Y-74083333D01*
X163309523Y-74178571D01*
X163309523Y-74702380D01*
X163309523Y-74178571D02*
X163261904Y-74083333D01*
X163166666Y-74035714D01*
X163023809Y-74035714D01*
X162928571Y-74083333D01*
X162880952Y-74178571D01*
X162880952Y-74702380D01*
X162404761Y-74702380D02*
X162404761Y-74035714D01*
X162404761Y-74130952D02*
X162357142Y-74083333D01*
X162261904Y-74035714D01*
X162119047Y-74035714D01*
X162023809Y-74083333D01*
X161976190Y-74178571D01*
X161976190Y-74702380D01*
X161976190Y-74178571D02*
X161928571Y-74083333D01*
X161833333Y-74035714D01*
X161690476Y-74035714D01*
X161595238Y-74083333D01*
X161547619Y-74178571D01*
X161547619Y-74702380D01*
X161000000Y-75750000D02*
X166000000Y-75750000D01*
X161000000Y-76250000D02*
X161000000Y-75163579D01*
X166000000Y-76250000D02*
X166000000Y-75163579D01*
X166000000Y-75750000D02*
X164873496Y-76336421D01*
X166000000Y-75750000D02*
X164873496Y-75163579D01*
X161000000Y-75750000D02*
X162126504Y-76336421D01*
X161000000Y-75750000D02*
X162126504Y-75163579D01*
X154976190Y-73702380D02*
X155452380Y-73702380D01*
X155500000Y-74178571D01*
X155452380Y-74130952D01*
X155357142Y-74083333D01*
X155119047Y-74083333D01*
X155023809Y-74130952D01*
X154976190Y-74178571D01*
X154928571Y-74273809D01*
X154928571Y-74511904D01*
X154976190Y-74607142D01*
X155023809Y-74654761D01*
X155119047Y-74702380D01*
X155357142Y-74702380D01*
X155452380Y-74654761D01*
X155500000Y-74607142D01*
X153738095Y-74702380D02*
X153738095Y-74035714D01*
X153738095Y-74130952D02*
X153690476Y-74083333D01*
X153595238Y-74035714D01*
X153452380Y-74035714D01*
X153357142Y-74083333D01*
X153309523Y-74178571D01*
X153309523Y-74702380D01*
X153309523Y-74178571D02*
X153261904Y-74083333D01*
X153166666Y-74035714D01*
X153023809Y-74035714D01*
X152928571Y-74083333D01*
X152880952Y-74178571D01*
X152880952Y-74702380D01*
X152404761Y-74702380D02*
X152404761Y-74035714D01*
X152404761Y-74130952D02*
X152357142Y-74083333D01*
X152261904Y-74035714D01*
X152119047Y-74035714D01*
X152023809Y-74083333D01*
X151976190Y-74178571D01*
X151976190Y-74702380D01*
X151976190Y-74178571D02*
X151928571Y-74083333D01*
X151833333Y-74035714D01*
X151690476Y-74035714D01*
X151595238Y-74083333D01*
X151547619Y-74178571D01*
X151547619Y-74702380D01*
X151000000Y-75750000D02*
X156000000Y-75750000D01*
X151000000Y-76250000D02*
X151000000Y-75163579D01*
X156000000Y-76250000D02*
X156000000Y-75163579D01*
X156000000Y-75750000D02*
X154873496Y-76336421D01*
X156000000Y-75750000D02*
X154873496Y-75163579D01*
X151000000Y-75750000D02*
X152126504Y-76336421D01*
X151000000Y-75750000D02*
X152126504Y-75163579D01*
D11*
X169650000Y-90254166D02*
X169483333Y-90954166D01*
X169350000Y-90454166D01*
X169216666Y-90954166D01*
X169050000Y-90254166D01*
X168316666Y-91020833D02*
X168383333Y-90987500D01*
X168450000Y-90920833D01*
X168550000Y-90820833D01*
X168616666Y-90787500D01*
X168683333Y-90787500D01*
X168650000Y-90954166D02*
X168716666Y-90920833D01*
X168783333Y-90854166D01*
X168816666Y-90720833D01*
X168816666Y-90487500D01*
X168783333Y-90354166D01*
X168716666Y-90287500D01*
X168650000Y-90254166D01*
X168516666Y-90254166D01*
X168450000Y-90287500D01*
X168383333Y-90354166D01*
X168350000Y-90487500D01*
X168350000Y-90720833D01*
X168383333Y-90854166D01*
X168450000Y-90920833D01*
X168516666Y-90954166D01*
X168650000Y-90954166D01*
X167816666Y-90587500D02*
X168050000Y-90587500D01*
X168050000Y-90954166D02*
X168050000Y-90254166D01*
X167716666Y-90254166D01*
X167450000Y-90954166D02*
X167450000Y-90254166D01*
X167050000Y-90954166D01*
X167050000Y-90254166D01*
X166716666Y-90687500D02*
X166183333Y-90687500D01*
X165916666Y-90254166D02*
X165483333Y-90254166D01*
X165716666Y-90520833D01*
X165616666Y-90520833D01*
X165550000Y-90554166D01*
X165516666Y-90587500D01*
X165483333Y-90654166D01*
X165483333Y-90820833D01*
X165516666Y-90887500D01*
X165550000Y-90920833D01*
X165616666Y-90954166D01*
X165816666Y-90954166D01*
X165883333Y-90920833D01*
X165916666Y-90887500D01*
X165216666Y-90320833D02*
X165183333Y-90287500D01*
X165116666Y-90254166D01*
X164950000Y-90254166D01*
X164883333Y-90287500D01*
X164850000Y-90320833D01*
X164816666Y-90387500D01*
X164816666Y-90454166D01*
X164850000Y-90554166D01*
X165250000Y-90954166D01*
X164816666Y-90954166D01*
X163650000Y-90254166D02*
X163983333Y-90254166D01*
X164016666Y-90587500D01*
X163983333Y-90554166D01*
X163916666Y-90520833D01*
X163750000Y-90520833D01*
X163683333Y-90554166D01*
X163650000Y-90587500D01*
X163616666Y-90654166D01*
X163616666Y-90820833D01*
X163650000Y-90887500D01*
X163683333Y-90920833D01*
X163750000Y-90954166D01*
X163916666Y-90954166D01*
X163983333Y-90920833D01*
X164016666Y-90887500D01*
X163383333Y-90954166D02*
X163016666Y-90487500D01*
X163383333Y-90487500D02*
X163016666Y-90954166D01*
X162416666Y-90254166D02*
X162750000Y-90254166D01*
X162783333Y-90587500D01*
X162750000Y-90554166D01*
X162683333Y-90520833D01*
X162516666Y-90520833D01*
X162450000Y-90554166D01*
X162416666Y-90587500D01*
X162383333Y-90654166D01*
X162383333Y-90820833D01*
X162416666Y-90887500D01*
X162450000Y-90920833D01*
X162516666Y-90954166D01*
X162683333Y-90954166D01*
X162750000Y-90920833D01*
X162783333Y-90887500D01*
X167383333Y-92179166D02*
X167616666Y-91845833D01*
X167783333Y-92179166D02*
X167783333Y-91479166D01*
X167516666Y-91479166D01*
X167450000Y-91512500D01*
X167416666Y-91545833D01*
X167383333Y-91612500D01*
X167383333Y-91712500D01*
X167416666Y-91779166D01*
X167450000Y-91812500D01*
X167516666Y-91845833D01*
X167783333Y-91845833D01*
X167183333Y-91479166D02*
X166783333Y-91479166D01*
X166983333Y-92179166D02*
X166983333Y-91479166D01*
X166450000Y-91779166D02*
X166516666Y-91745833D01*
X166550000Y-91712500D01*
X166583333Y-91645833D01*
X166583333Y-91612500D01*
X166550000Y-91545833D01*
X166516666Y-91512500D01*
X166450000Y-91479166D01*
X166316666Y-91479166D01*
X166250000Y-91512500D01*
X166216666Y-91545833D01*
X166183333Y-91612500D01*
X166183333Y-91645833D01*
X166216666Y-91712500D01*
X166250000Y-91745833D01*
X166316666Y-91779166D01*
X166450000Y-91779166D01*
X166516666Y-91812500D01*
X166550000Y-91845833D01*
X166583333Y-91912500D01*
X166583333Y-92045833D01*
X166550000Y-92112500D01*
X166516666Y-92145833D01*
X166450000Y-92179166D01*
X166316666Y-92179166D01*
X166250000Y-92145833D01*
X166216666Y-92112500D01*
X166183333Y-92045833D01*
X166183333Y-91912500D01*
X166216666Y-91845833D01*
X166250000Y-91812500D01*
X166316666Y-91779166D01*
X165916666Y-91545833D02*
X165883333Y-91512500D01*
X165816666Y-91479166D01*
X165650000Y-91479166D01*
X165583333Y-91512500D01*
X165550000Y-91545833D01*
X165516666Y-91612500D01*
X165516666Y-91679166D01*
X165550000Y-91779166D01*
X165950000Y-92179166D01*
X165516666Y-92179166D01*
X165083333Y-91479166D02*
X165016666Y-91479166D01*
X164950000Y-91512500D01*
X164916666Y-91545833D01*
X164883333Y-91612500D01*
X164850000Y-91745833D01*
X164850000Y-91912500D01*
X164883333Y-92045833D01*
X164916666Y-92112500D01*
X164950000Y-92145833D01*
X165016666Y-92179166D01*
X165083333Y-92179166D01*
X165150000Y-92145833D01*
X165183333Y-92112500D01*
X165216666Y-92045833D01*
X165250000Y-91912500D01*
X165250000Y-91745833D01*
X165216666Y-91612500D01*
X165183333Y-91545833D01*
X165150000Y-91512500D01*
X165083333Y-91479166D01*
X164250000Y-91479166D02*
X164383333Y-91479166D01*
X164450000Y-91512500D01*
X164483333Y-91545833D01*
X164550000Y-91645833D01*
X164583333Y-91779166D01*
X164583333Y-92045833D01*
X164550000Y-92112500D01*
X164516666Y-92145833D01*
X164450000Y-92179166D01*
X164316666Y-92179166D01*
X164250000Y-92145833D01*
X164216666Y-92112500D01*
X164183333Y-92045833D01*
X164183333Y-91879166D01*
X164216666Y-91812500D01*
X164250000Y-91779166D01*
X164316666Y-91745833D01*
X164450000Y-91745833D01*
X164516666Y-91779166D01*
X164550000Y-91812500D01*
X164583333Y-91879166D01*
X158716666Y-91633333D02*
X158783333Y-91600000D01*
X158850000Y-91533333D01*
X158950000Y-91433333D01*
X159016666Y-91400000D01*
X159083333Y-91400000D01*
X159050000Y-91566666D02*
X159116666Y-91533333D01*
X159183333Y-91466666D01*
X159216666Y-91333333D01*
X159216666Y-91100000D01*
X159183333Y-90966666D01*
X159116666Y-90900000D01*
X159050000Y-90866666D01*
X158916666Y-90866666D01*
X158850000Y-90900000D01*
X158783333Y-90966666D01*
X158750000Y-91100000D01*
X158750000Y-91333333D01*
X158783333Y-91466666D01*
X158850000Y-91533333D01*
X158916666Y-91566666D01*
X159050000Y-91566666D01*
X158216666Y-91200000D02*
X158450000Y-91200000D01*
X158450000Y-91566666D02*
X158450000Y-90866666D01*
X158116666Y-90866666D01*
X157850000Y-91566666D02*
X157850000Y-90866666D01*
X157450000Y-91566666D01*
X157450000Y-90866666D01*
X157116666Y-91300000D02*
X156583333Y-91300000D01*
X156283333Y-90933333D02*
X156250000Y-90900000D01*
X156183333Y-90866666D01*
X156016666Y-90866666D01*
X155950000Y-90900000D01*
X155916666Y-90933333D01*
X155883333Y-91000000D01*
X155883333Y-91066666D01*
X155916666Y-91166666D01*
X156316666Y-91566666D01*
X155883333Y-91566666D01*
X155450000Y-90866666D02*
X155383333Y-90866666D01*
X155316666Y-90900000D01*
X155283333Y-90933333D01*
X155250000Y-91000000D01*
X155216666Y-91133333D01*
X155216666Y-91300000D01*
X155250000Y-91433333D01*
X155283333Y-91500000D01*
X155316666Y-91533333D01*
X155383333Y-91566666D01*
X155450000Y-91566666D01*
X155516666Y-91533333D01*
X155550000Y-91500000D01*
X155583333Y-91433333D01*
X155616666Y-91300000D01*
X155616666Y-91133333D01*
X155583333Y-91000000D01*
X155550000Y-90933333D01*
X155516666Y-90900000D01*
X155450000Y-90866666D01*
X154450000Y-90866666D02*
X154016666Y-90866666D01*
X154250000Y-91133333D01*
X154150000Y-91133333D01*
X154083333Y-91166666D01*
X154050000Y-91200000D01*
X154016666Y-91266666D01*
X154016666Y-91433333D01*
X154050000Y-91500000D01*
X154083333Y-91533333D01*
X154150000Y-91566666D01*
X154350000Y-91566666D01*
X154416666Y-91533333D01*
X154450000Y-91500000D01*
X153783333Y-91566666D02*
X153416666Y-91100000D01*
X153783333Y-91100000D02*
X153416666Y-91566666D01*
X153216666Y-90866666D02*
X152783333Y-90866666D01*
X153016666Y-91133333D01*
X152916666Y-91133333D01*
X152850000Y-91166666D01*
X152816666Y-91200000D01*
X152783333Y-91266666D01*
X152783333Y-91433333D01*
X152816666Y-91500000D01*
X152850000Y-91533333D01*
X152916666Y-91566666D01*
X153116666Y-91566666D01*
X153183333Y-91533333D01*
X153216666Y-91500000D01*
D14*
G04 #@! TO.C,REF\002A\002A*
X168667000Y-86417000D02*
X168667000Y-85909000D01*
X168159000Y-86417000D02*
X168667000Y-86417000D01*
X168667000Y-81083000D02*
X168159000Y-81083000D01*
X168667000Y-81591000D02*
X168667000Y-81083000D01*
X163333000Y-81083000D02*
X163333000Y-81591000D01*
X163841000Y-81083000D02*
X163333000Y-81083000D01*
X163841000Y-86417000D02*
X163333000Y-86417000D01*
D15*
G36*
X177652536Y-51307150D02*
X177650994Y-51637052D01*
X177649434Y-51919981D01*
X177647739Y-52159761D01*
X177645792Y-52360219D01*
X177643477Y-52525181D01*
X177640678Y-52658472D01*
X177637276Y-52763918D01*
X177633156Y-52845345D01*
X177628201Y-52906580D01*
X177622293Y-52951447D01*
X177615317Y-52983774D01*
X177607155Y-53007385D01*
X177600198Y-53021650D01*
X177555096Y-53104200D01*
X178369200Y-53104200D01*
X178369200Y-53028000D01*
X178372559Y-52974452D01*
X178380649Y-52951804D01*
X178380773Y-52951800D01*
X178406891Y-52964784D01*
X178459274Y-52997537D01*
X178486097Y-53015421D01*
X178618397Y-53082647D01*
X178778063Y-53129589D01*
X178946978Y-53153338D01*
X179107023Y-53150984D01*
X179207400Y-53131247D01*
X179391462Y-53049939D01*
X179556590Y-52928200D01*
X179691483Y-52775510D01*
X179752845Y-52673694D01*
X179820269Y-52516029D01*
X179864145Y-52349951D01*
X179887286Y-52161403D01*
X179892759Y-51974913D01*
X179891998Y-51961200D01*
X179091864Y-51961200D01*
X179087366Y-52136895D01*
X179073751Y-52270414D01*
X179048523Y-52369949D01*
X179009188Y-52443691D01*
X178953249Y-52499831D01*
X178920984Y-52522170D01*
X178814579Y-52560164D01*
X178688856Y-52557176D01*
X178553797Y-52513728D01*
X178529501Y-52501773D01*
X178432700Y-52451557D01*
X178425858Y-51902487D01*
X178419015Y-51353416D01*
X178486109Y-51309454D01*
X178549640Y-51282707D01*
X178639332Y-51262044D01*
X178697367Y-51255065D01*
X178785745Y-51251970D01*
X178844709Y-51262095D01*
X178895015Y-51290683D01*
X178921073Y-51311568D01*
X178988417Y-51385167D01*
X179037336Y-51480737D01*
X179069659Y-51605234D01*
X179087213Y-51765611D01*
X179091864Y-51961200D01*
X179891998Y-51961200D01*
X179876325Y-51678965D01*
X179828458Y-51419134D01*
X179749829Y-51196509D01*
X179641111Y-51012180D01*
X179502975Y-50867237D01*
X179336094Y-50762768D01*
X179141140Y-50699864D01*
X179101830Y-50692835D01*
X178986297Y-50684575D01*
X178858937Y-50691429D01*
X178732339Y-50710852D01*
X178619088Y-50740299D01*
X178531772Y-50777225D01*
X178483738Y-50817815D01*
X178462873Y-50842282D01*
X178446830Y-50837192D01*
X178435075Y-50798657D01*
X178427076Y-50722788D01*
X178422298Y-50605701D01*
X178420207Y-50443506D01*
X178420000Y-50353670D01*
X178420523Y-50179573D01*
X178422531Y-50048217D01*
X178426689Y-49951550D01*
X178433657Y-49881519D01*
X178444099Y-49830073D01*
X178458678Y-49789158D01*
X178468062Y-49769470D01*
X178516124Y-49675200D01*
X177659772Y-49675200D01*
X177652536Y-51307150D01*
X177652536Y-51307150D01*
G37*
X177652536Y-51307150D02*
X177650994Y-51637052D01*
X177649434Y-51919981D01*
X177647739Y-52159761D01*
X177645792Y-52360219D01*
X177643477Y-52525181D01*
X177640678Y-52658472D01*
X177637276Y-52763918D01*
X177633156Y-52845345D01*
X177628201Y-52906580D01*
X177622293Y-52951447D01*
X177615317Y-52983774D01*
X177607155Y-53007385D01*
X177600198Y-53021650D01*
X177555096Y-53104200D01*
X178369200Y-53104200D01*
X178369200Y-53028000D01*
X178372559Y-52974452D01*
X178380649Y-52951804D01*
X178380773Y-52951800D01*
X178406891Y-52964784D01*
X178459274Y-52997537D01*
X178486097Y-53015421D01*
X178618397Y-53082647D01*
X178778063Y-53129589D01*
X178946978Y-53153338D01*
X179107023Y-53150984D01*
X179207400Y-53131247D01*
X179391462Y-53049939D01*
X179556590Y-52928200D01*
X179691483Y-52775510D01*
X179752845Y-52673694D01*
X179820269Y-52516029D01*
X179864145Y-52349951D01*
X179887286Y-52161403D01*
X179892759Y-51974913D01*
X179891998Y-51961200D01*
X179091864Y-51961200D01*
X179087366Y-52136895D01*
X179073751Y-52270414D01*
X179048523Y-52369949D01*
X179009188Y-52443691D01*
X178953249Y-52499831D01*
X178920984Y-52522170D01*
X178814579Y-52560164D01*
X178688856Y-52557176D01*
X178553797Y-52513728D01*
X178529501Y-52501773D01*
X178432700Y-52451557D01*
X178425858Y-51902487D01*
X178419015Y-51353416D01*
X178486109Y-51309454D01*
X178549640Y-51282707D01*
X178639332Y-51262044D01*
X178697367Y-51255065D01*
X178785745Y-51251970D01*
X178844709Y-51262095D01*
X178895015Y-51290683D01*
X178921073Y-51311568D01*
X178988417Y-51385167D01*
X179037336Y-51480737D01*
X179069659Y-51605234D01*
X179087213Y-51765611D01*
X179091864Y-51961200D01*
X179891998Y-51961200D01*
X179876325Y-51678965D01*
X179828458Y-51419134D01*
X179749829Y-51196509D01*
X179641111Y-51012180D01*
X179502975Y-50867237D01*
X179336094Y-50762768D01*
X179141140Y-50699864D01*
X179101830Y-50692835D01*
X178986297Y-50684575D01*
X178858937Y-50691429D01*
X178732339Y-50710852D01*
X178619088Y-50740299D01*
X178531772Y-50777225D01*
X178483738Y-50817815D01*
X178462873Y-50842282D01*
X178446830Y-50837192D01*
X178435075Y-50798657D01*
X178427076Y-50722788D01*
X178422298Y-50605701D01*
X178420207Y-50443506D01*
X178420000Y-50353670D01*
X178420523Y-50179573D01*
X178422531Y-50048217D01*
X178426689Y-49951550D01*
X178433657Y-49881519D01*
X178444099Y-49830073D01*
X178458678Y-49789158D01*
X178468062Y-49769470D01*
X178516124Y-49675200D01*
X177659772Y-49675200D01*
X177652536Y-51307150D01*
G36*
X180872380Y-50702359D02*
X180696424Y-50742264D01*
X180577487Y-50786895D01*
X180484902Y-50842778D01*
X180402221Y-50916360D01*
X180349083Y-50971188D01*
X180305604Y-51022829D01*
X180270709Y-51076992D01*
X180243324Y-51139387D01*
X180222376Y-51215723D01*
X180206791Y-51311710D01*
X180195496Y-51433058D01*
X180187415Y-51585475D01*
X180181477Y-51774670D01*
X180176606Y-52006355D01*
X180174451Y-52127477D01*
X180170193Y-52359434D01*
X180166070Y-52546051D01*
X180161724Y-52692785D01*
X180156797Y-52805095D01*
X180150932Y-52888437D01*
X180143769Y-52948269D01*
X180134951Y-52990049D01*
X180124120Y-53019234D01*
X180114865Y-53035527D01*
X180069829Y-53104200D01*
X180880582Y-53104200D01*
X180896500Y-52950698D01*
X180995898Y-53018483D01*
X181152054Y-53097254D01*
X181332908Y-53143178D01*
X181522705Y-53154137D01*
X181705691Y-53128011D01*
X181739166Y-53118436D01*
X181925571Y-53036112D01*
X182076480Y-52918585D01*
X182189348Y-52769321D01*
X182261625Y-52591786D01*
X182290765Y-52389443D01*
X182291212Y-52367600D01*
X182290548Y-52338545D01*
X181562293Y-52338545D01*
X181558037Y-52427884D01*
X181547910Y-52458502D01*
X181485221Y-52539089D01*
X181390277Y-52593481D01*
X181276673Y-52617352D01*
X181158004Y-52606378D01*
X181120404Y-52594508D01*
X181033217Y-52552968D01*
X180977576Y-52500366D01*
X180947106Y-52425280D01*
X180935434Y-52316289D01*
X180934600Y-52261572D01*
X180934600Y-52062800D01*
X181100516Y-52062800D01*
X181264253Y-52077824D01*
X181402872Y-52120733D01*
X181498324Y-52181555D01*
X181540931Y-52248298D01*
X181562293Y-52338545D01*
X182290548Y-52338545D01*
X182288597Y-52253273D01*
X182274949Y-52165974D01*
X182245450Y-52082311D01*
X182222118Y-52032215D01*
X182117777Y-51875636D01*
X181973396Y-51749758D01*
X181789631Y-51654878D01*
X181567138Y-51591291D01*
X181306574Y-51559295D01*
X181166206Y-51555241D01*
X180927912Y-51554800D01*
X180941804Y-51451228D01*
X180977738Y-51337960D01*
X181049656Y-51259507D01*
X181156276Y-51216163D01*
X181296313Y-51208223D01*
X181468484Y-51235980D01*
X181645491Y-51290144D01*
X181729949Y-51317413D01*
X181794942Y-51332373D01*
X181826805Y-51331908D01*
X181827138Y-51331589D01*
X181844724Y-51299872D01*
X181874820Y-51233912D01*
X181912098Y-51146745D01*
X181951227Y-51051404D01*
X181986878Y-50960925D01*
X182013720Y-50888340D01*
X182026425Y-50846685D01*
X182026800Y-50843302D01*
X182005010Y-50824617D01*
X181961553Y-50818200D01*
X181909969Y-50812037D01*
X181823150Y-50795424D01*
X181714897Y-50771175D01*
X181637703Y-50752173D01*
X181371904Y-50701360D01*
X181113224Y-50684718D01*
X180872380Y-50702359D01*
X180872380Y-50702359D01*
G37*
X180872380Y-50702359D02*
X180696424Y-50742264D01*
X180577487Y-50786895D01*
X180484902Y-50842778D01*
X180402221Y-50916360D01*
X180349083Y-50971188D01*
X180305604Y-51022829D01*
X180270709Y-51076992D01*
X180243324Y-51139387D01*
X180222376Y-51215723D01*
X180206791Y-51311710D01*
X180195496Y-51433058D01*
X180187415Y-51585475D01*
X180181477Y-51774670D01*
X180176606Y-52006355D01*
X180174451Y-52127477D01*
X180170193Y-52359434D01*
X180166070Y-52546051D01*
X180161724Y-52692785D01*
X180156797Y-52805095D01*
X180150932Y-52888437D01*
X180143769Y-52948269D01*
X180134951Y-52990049D01*
X180124120Y-53019234D01*
X180114865Y-53035527D01*
X180069829Y-53104200D01*
X180880582Y-53104200D01*
X180896500Y-52950698D01*
X180995898Y-53018483D01*
X181152054Y-53097254D01*
X181332908Y-53143178D01*
X181522705Y-53154137D01*
X181705691Y-53128011D01*
X181739166Y-53118436D01*
X181925571Y-53036112D01*
X182076480Y-52918585D01*
X182189348Y-52769321D01*
X182261625Y-52591786D01*
X182290765Y-52389443D01*
X182291212Y-52367600D01*
X182290548Y-52338545D01*
X181562293Y-52338545D01*
X181558037Y-52427884D01*
X181547910Y-52458502D01*
X181485221Y-52539089D01*
X181390277Y-52593481D01*
X181276673Y-52617352D01*
X181158004Y-52606378D01*
X181120404Y-52594508D01*
X181033217Y-52552968D01*
X180977576Y-52500366D01*
X180947106Y-52425280D01*
X180935434Y-52316289D01*
X180934600Y-52261572D01*
X180934600Y-52062800D01*
X181100516Y-52062800D01*
X181264253Y-52077824D01*
X181402872Y-52120733D01*
X181498324Y-52181555D01*
X181540931Y-52248298D01*
X181562293Y-52338545D01*
X182290548Y-52338545D01*
X182288597Y-52253273D01*
X182274949Y-52165974D01*
X182245450Y-52082311D01*
X182222118Y-52032215D01*
X182117777Y-51875636D01*
X181973396Y-51749758D01*
X181789631Y-51654878D01*
X181567138Y-51591291D01*
X181306574Y-51559295D01*
X181166206Y-51555241D01*
X180927912Y-51554800D01*
X180941804Y-51451228D01*
X180977738Y-51337960D01*
X181049656Y-51259507D01*
X181156276Y-51216163D01*
X181296313Y-51208223D01*
X181468484Y-51235980D01*
X181645491Y-51290144D01*
X181729949Y-51317413D01*
X181794942Y-51332373D01*
X181826805Y-51331908D01*
X181827138Y-51331589D01*
X181844724Y-51299872D01*
X181874820Y-51233912D01*
X181912098Y-51146745D01*
X181951227Y-51051404D01*
X181986878Y-50960925D01*
X182013720Y-50888340D01*
X182026425Y-50846685D01*
X182026800Y-50843302D01*
X182005010Y-50824617D01*
X181961553Y-50818200D01*
X181909969Y-50812037D01*
X181823150Y-50795424D01*
X181714897Y-50771175D01*
X181637703Y-50752173D01*
X181371904Y-50701360D01*
X181113224Y-50684718D01*
X180872380Y-50702359D01*
G36*
X182955324Y-49856341D02*
X182914089Y-49866143D01*
X182843121Y-49888829D01*
X182747827Y-49924963D01*
X182640479Y-49969187D01*
X182533347Y-50016147D01*
X182438702Y-50060487D01*
X182368815Y-50096851D01*
X182337936Y-50117598D01*
X182347626Y-50140582D01*
X182379964Y-50195508D01*
X182428536Y-50272651D01*
X182486926Y-50362288D01*
X182548719Y-50454695D01*
X182607498Y-50540151D01*
X182656848Y-50608930D01*
X182689323Y-50650159D01*
X182717764Y-50647624D01*
X182769919Y-50617335D01*
X182813593Y-50583312D01*
X182958702Y-50491226D01*
X183123513Y-50445559D01*
X183281902Y-50444284D01*
X183452602Y-50484902D01*
X183596741Y-50568127D01*
X183713755Y-50692925D01*
X183803081Y-50858260D01*
X183864157Y-51063097D01*
X183896419Y-51306401D01*
X183899574Y-51580200D01*
X183878133Y-51827826D01*
X183833016Y-52033741D01*
X183762370Y-52202105D01*
X183664343Y-52337080D01*
X183537083Y-52442826D01*
X183507421Y-52461151D01*
X183430227Y-52501415D01*
X183358762Y-52522876D01*
X183270973Y-52530676D01*
X183207900Y-52531009D01*
X183048183Y-52515354D01*
X182909453Y-52467392D01*
X182775375Y-52380613D01*
X182725154Y-52338663D01*
X182670908Y-52294162D01*
X182634586Y-52270225D01*
X182626945Y-52268969D01*
X182604784Y-52302288D01*
X182565502Y-52366333D01*
X182514770Y-52451348D01*
X182458257Y-52547575D01*
X182401634Y-52645257D01*
X182350569Y-52734636D01*
X182310735Y-52805956D01*
X182287799Y-52849460D01*
X182284547Y-52858180D01*
X182309782Y-52871554D01*
X182367656Y-52902253D01*
X182445938Y-52943786D01*
X182450543Y-52946230D01*
X182612853Y-53026612D01*
X182755788Y-53081928D01*
X182897728Y-53116986D01*
X183057053Y-53136593D01*
X183207900Y-53144340D01*
X183400715Y-53145569D01*
X183552750Y-53136113D01*
X183643564Y-53120565D01*
X183875799Y-53035718D01*
X184088841Y-52906718D01*
X184278634Y-52737906D01*
X184441122Y-52533623D01*
X184572248Y-52298209D01*
X184667956Y-52036005D01*
X184672452Y-52019632D01*
X184708750Y-51833026D01*
X184727655Y-51618920D01*
X184729177Y-51395257D01*
X184713331Y-51179982D01*
X184680128Y-50991040D01*
X184671703Y-50959044D01*
X184569939Y-50685435D01*
X184427268Y-50439468D01*
X184246196Y-50224653D01*
X184029230Y-50044495D01*
X184008000Y-50030082D01*
X183830356Y-49937504D01*
X183622302Y-49871748D01*
X183397802Y-49834907D01*
X183170822Y-49829073D01*
X182955324Y-49856341D01*
X182955324Y-49856341D01*
G37*
X182955324Y-49856341D02*
X182914089Y-49866143D01*
X182843121Y-49888829D01*
X182747827Y-49924963D01*
X182640479Y-49969187D01*
X182533347Y-50016147D01*
X182438702Y-50060487D01*
X182368815Y-50096851D01*
X182337936Y-50117598D01*
X182347626Y-50140582D01*
X182379964Y-50195508D01*
X182428536Y-50272651D01*
X182486926Y-50362288D01*
X182548719Y-50454695D01*
X182607498Y-50540151D01*
X182656848Y-50608930D01*
X182689323Y-50650159D01*
X182717764Y-50647624D01*
X182769919Y-50617335D01*
X182813593Y-50583312D01*
X182958702Y-50491226D01*
X183123513Y-50445559D01*
X183281902Y-50444284D01*
X183452602Y-50484902D01*
X183596741Y-50568127D01*
X183713755Y-50692925D01*
X183803081Y-50858260D01*
X183864157Y-51063097D01*
X183896419Y-51306401D01*
X183899574Y-51580200D01*
X183878133Y-51827826D01*
X183833016Y-52033741D01*
X183762370Y-52202105D01*
X183664343Y-52337080D01*
X183537083Y-52442826D01*
X183507421Y-52461151D01*
X183430227Y-52501415D01*
X183358762Y-52522876D01*
X183270973Y-52530676D01*
X183207900Y-52531009D01*
X183048183Y-52515354D01*
X182909453Y-52467392D01*
X182775375Y-52380613D01*
X182725154Y-52338663D01*
X182670908Y-52294162D01*
X182634586Y-52270225D01*
X182626945Y-52268969D01*
X182604784Y-52302288D01*
X182565502Y-52366333D01*
X182514770Y-52451348D01*
X182458257Y-52547575D01*
X182401634Y-52645257D01*
X182350569Y-52734636D01*
X182310735Y-52805956D01*
X182287799Y-52849460D01*
X182284547Y-52858180D01*
X182309782Y-52871554D01*
X182367656Y-52902253D01*
X182445938Y-52943786D01*
X182450543Y-52946230D01*
X182612853Y-53026612D01*
X182755788Y-53081928D01*
X182897728Y-53116986D01*
X183057053Y-53136593D01*
X183207900Y-53144340D01*
X183400715Y-53145569D01*
X183552750Y-53136113D01*
X183643564Y-53120565D01*
X183875799Y-53035718D01*
X184088841Y-52906718D01*
X184278634Y-52737906D01*
X184441122Y-52533623D01*
X184572248Y-52298209D01*
X184667956Y-52036005D01*
X184672452Y-52019632D01*
X184708750Y-51833026D01*
X184727655Y-51618920D01*
X184729177Y-51395257D01*
X184713331Y-51179982D01*
X184680128Y-50991040D01*
X184671703Y-50959044D01*
X184569939Y-50685435D01*
X184427268Y-50439468D01*
X184246196Y-50224653D01*
X184029230Y-50044495D01*
X184008000Y-50030082D01*
X183830356Y-49937504D01*
X183622302Y-49871748D01*
X183397802Y-49834907D01*
X183170822Y-49829073D01*
X182955324Y-49856341D01*
G36*
X185048637Y-49292699D02*
X185026845Y-49299976D01*
X185008414Y-49316420D01*
X184993065Y-49345197D01*
X184980519Y-49389474D01*
X184970495Y-49452418D01*
X184962717Y-49537194D01*
X184956904Y-49646971D01*
X184952777Y-49784914D01*
X184950057Y-49954191D01*
X184948465Y-50157968D01*
X184947723Y-50399411D01*
X184947550Y-50681687D01*
X184947668Y-51007964D01*
X184947797Y-51381407D01*
X184947800Y-51440500D01*
X184947878Y-51815884D01*
X184948151Y-52143711D01*
X184948682Y-52427221D01*
X184949531Y-52669658D01*
X184950760Y-52874261D01*
X184952431Y-53044274D01*
X184954605Y-53182939D01*
X184957343Y-53293496D01*
X184960708Y-53379188D01*
X184964759Y-53443257D01*
X184969559Y-53488944D01*
X184975169Y-53519492D01*
X184981651Y-53538141D01*
X184987715Y-53546885D01*
X184998791Y-53553992D01*
X185018999Y-53560213D01*
X185051510Y-53565606D01*
X185099497Y-53570229D01*
X185166133Y-53574140D01*
X185254590Y-53577396D01*
X185368040Y-53580056D01*
X185509656Y-53582175D01*
X185682610Y-53583813D01*
X185890076Y-53585028D01*
X186135224Y-53585876D01*
X186421229Y-53586415D01*
X186751261Y-53586703D01*
X187128495Y-53586798D01*
X187183001Y-53586800D01*
X187566824Y-53586726D01*
X187903020Y-53586467D01*
X188194761Y-53585965D01*
X188445219Y-53585162D01*
X188657568Y-53584000D01*
X188834979Y-53582422D01*
X188980625Y-53580371D01*
X189097678Y-53577787D01*
X189189312Y-53574615D01*
X189258697Y-53570795D01*
X189309008Y-53566271D01*
X189343416Y-53560985D01*
X189365093Y-53554879D01*
X189377213Y-53547895D01*
X189378286Y-53546885D01*
X189385535Y-53535627D01*
X189391862Y-53515152D01*
X189397328Y-53482219D01*
X189401994Y-53433586D01*
X189405922Y-53366011D01*
X189409174Y-53276252D01*
X189411810Y-53161068D01*
X189413893Y-53017217D01*
X189415483Y-52841456D01*
X189416642Y-52630544D01*
X189417432Y-52381239D01*
X189417914Y-52090300D01*
X189418149Y-51754484D01*
X189418200Y-51440500D01*
X189418123Y-51065115D01*
X189417850Y-50737288D01*
X189417319Y-50453778D01*
X189416470Y-50211341D01*
X189415241Y-50006738D01*
X189414052Y-49885729D01*
X189138801Y-49885729D01*
X189128363Y-49910638D01*
X189102056Y-49964844D01*
X189088001Y-49992699D01*
X189077068Y-50015774D01*
X189067826Y-50041420D01*
X189060133Y-50073859D01*
X189053848Y-50117308D01*
X189048828Y-50175988D01*
X189044932Y-50254117D01*
X189042017Y-50355917D01*
X189039943Y-50485605D01*
X189038566Y-50647401D01*
X189037746Y-50845525D01*
X189037341Y-51084197D01*
X189037209Y-51367635D01*
X189037201Y-51504290D01*
X189037561Y-51767726D01*
X189038598Y-52016037D01*
X189040244Y-52244556D01*
X189042432Y-52448618D01*
X189045097Y-52623558D01*
X189048170Y-52764711D01*
X189051585Y-52867410D01*
X189055276Y-52926991D01*
X189057776Y-52940370D01*
X189082200Y-52980136D01*
X189108032Y-53034350D01*
X189137711Y-53104200D01*
X188611206Y-53103811D01*
X188456033Y-53102849D01*
X188321650Y-53100381D01*
X188215001Y-53096674D01*
X188143030Y-53091992D01*
X188112681Y-53086600D01*
X188112906Y-53084761D01*
X188142855Y-53050826D01*
X188178668Y-52992626D01*
X188182756Y-52984811D01*
X188197682Y-52947521D01*
X188208693Y-52897267D01*
X188216331Y-52826556D01*
X188221134Y-52727898D01*
X188223644Y-52593800D01*
X188224399Y-52416772D01*
X188224400Y-52406961D01*
X188223167Y-52229347D01*
X188219604Y-52086876D01*
X188213922Y-51983727D01*
X188206328Y-51924078D01*
X188199586Y-51910400D01*
X188170086Y-51929770D01*
X188132359Y-51976744D01*
X188130085Y-51980250D01*
X188089507Y-52037268D01*
X188055301Y-52075500D01*
X188024853Y-52112632D01*
X187984917Y-52174966D01*
X187971329Y-52198833D01*
X187929180Y-52265930D01*
X187866473Y-52354720D01*
X187795408Y-52448064D01*
X187781458Y-52465533D01*
X187673339Y-52608344D01*
X187582862Y-52744967D01*
X187514611Y-52867349D01*
X187473169Y-52967440D01*
X187462400Y-53025923D01*
X187462400Y-53104200D01*
X186335945Y-53104200D01*
X186348071Y-53090488D01*
X186192400Y-53090488D01*
X186168301Y-53094757D01*
X186101204Y-53098485D01*
X185998911Y-53101448D01*
X185869222Y-53103426D01*
X185719939Y-53104196D01*
X185709800Y-53104200D01*
X185533033Y-53103408D01*
X185401899Y-53100806D01*
X185311253Y-53096056D01*
X185255950Y-53088818D01*
X185230844Y-53078752D01*
X185228008Y-53072450D01*
X185242962Y-53028554D01*
X185266108Y-52991395D01*
X185275302Y-52972692D01*
X185282898Y-52940195D01*
X185289041Y-52889498D01*
X185293873Y-52816196D01*
X185297536Y-52715883D01*
X185300174Y-52584154D01*
X185301930Y-52416604D01*
X185302947Y-52208827D01*
X185303367Y-51956418D01*
X185303400Y-51842045D01*
X185303400Y-50742000D01*
X186168305Y-50742000D01*
X186129553Y-50816938D01*
X186119522Y-50842815D01*
X186111333Y-50881092D01*
X186104808Y-50936607D01*
X186099774Y-51014197D01*
X186096053Y-51118700D01*
X186093471Y-51254954D01*
X186091852Y-51427797D01*
X186091021Y-51642067D01*
X186090800Y-51884750D01*
X186090914Y-52136440D01*
X186091415Y-52342511D01*
X186092545Y-52508147D01*
X186094545Y-52638527D01*
X186097655Y-52738835D01*
X186102117Y-52814251D01*
X186108171Y-52869957D01*
X186116059Y-52911135D01*
X186126021Y-52942967D01*
X186138299Y-52970635D01*
X186141600Y-52977200D01*
X186172510Y-53040636D01*
X186190520Y-53083110D01*
X186192400Y-53090488D01*
X186348071Y-53090488D01*
X186397523Y-53034570D01*
X186441445Y-52985266D01*
X186469627Y-52954290D01*
X186471800Y-52952020D01*
X186529555Y-52888905D01*
X186601037Y-52804689D01*
X186676103Y-52712065D01*
X186744609Y-52623725D01*
X186796412Y-52552361D01*
X186816624Y-52520547D01*
X186856845Y-52456584D01*
X186920338Y-52365299D01*
X186998196Y-52258680D01*
X187081513Y-52148715D01*
X187161383Y-52047390D01*
X187223727Y-51972607D01*
X187284171Y-51895548D01*
X187340841Y-51811943D01*
X187345022Y-51805050D01*
X187472363Y-51606936D01*
X187568006Y-51476356D01*
X187637964Y-51385212D01*
X187556532Y-51297760D01*
X187486340Y-51218661D01*
X187396285Y-51111892D01*
X187296943Y-50990451D01*
X187198893Y-50867339D01*
X187112711Y-50755555D01*
X187083849Y-50716815D01*
X186779059Y-50336892D01*
X186539721Y-50079787D01*
X186340941Y-49878400D01*
X186886253Y-49878400D01*
X187071450Y-49878523D01*
X187212002Y-49879861D01*
X187314063Y-49883867D01*
X187383788Y-49891993D01*
X187427331Y-49905691D01*
X187450847Y-49926416D01*
X187460489Y-49955618D01*
X187462414Y-49994751D01*
X187462400Y-50014390D01*
X187477988Y-50067842D01*
X187517059Y-50135121D01*
X187534701Y-50158362D01*
X187593348Y-50235668D01*
X187656110Y-50326586D01*
X187678198Y-50361000D01*
X187721448Y-50427764D01*
X187755088Y-50474931D01*
X187766761Y-50488000D01*
X187796555Y-50517339D01*
X187845755Y-50573018D01*
X187905478Y-50644108D01*
X187966838Y-50719681D01*
X188020953Y-50788808D01*
X188058937Y-50840561D01*
X188072000Y-50863483D01*
X188088818Y-50892974D01*
X188130854Y-50940717D01*
X188148201Y-50957900D01*
X188224401Y-51030904D01*
X188224400Y-50611088D01*
X188222807Y-50428302D01*
X188217105Y-50285476D01*
X188205907Y-50171840D01*
X188187828Y-50076629D01*
X188161482Y-49989075D01*
X188135836Y-49922850D01*
X188132606Y-49907771D01*
X188141351Y-49896538D01*
X188168295Y-49888591D01*
X188219662Y-49883367D01*
X188301676Y-49880303D01*
X188420561Y-49878838D01*
X188582540Y-49878410D01*
X188628083Y-49878400D01*
X188782917Y-49878746D01*
X188918878Y-49879712D01*
X189028383Y-49881190D01*
X189103849Y-49883071D01*
X189137692Y-49885245D01*
X189138801Y-49885729D01*
X189414052Y-49885729D01*
X189413570Y-49836725D01*
X189411396Y-49698060D01*
X189408658Y-49587503D01*
X189405293Y-49501811D01*
X189401242Y-49437742D01*
X189396442Y-49392055D01*
X189390832Y-49361507D01*
X189384350Y-49342858D01*
X189378286Y-49334114D01*
X189365822Y-49325934D01*
X189343563Y-49318938D01*
X189307809Y-49313034D01*
X189254859Y-49308133D01*
X189181012Y-49304144D01*
X189082569Y-49300978D01*
X188955827Y-49298544D01*
X188797087Y-49296752D01*
X188602647Y-49295511D01*
X188368807Y-49294733D01*
X188091865Y-49294326D01*
X187768122Y-49294200D01*
X186141600Y-49294200D01*
X186141600Y-49390418D01*
X186121521Y-49506335D01*
X186068475Y-49625000D01*
X185993246Y-49725991D01*
X185940994Y-49770244D01*
X185827454Y-49817370D01*
X185696500Y-49827636D01*
X185562372Y-49803918D01*
X185439310Y-49749089D01*
X185341552Y-49666023D01*
X185326200Y-49646147D01*
X185279194Y-49545428D01*
X185257561Y-49429877D01*
X185246310Y-49294199D01*
X185136970Y-49294200D01*
X185103420Y-49292977D01*
X185074069Y-49291421D01*
X185048637Y-49292699D01*
X185048637Y-49292699D01*
G37*
X185048637Y-49292699D02*
X185026845Y-49299976D01*
X185008414Y-49316420D01*
X184993065Y-49345197D01*
X184980519Y-49389474D01*
X184970495Y-49452418D01*
X184962717Y-49537194D01*
X184956904Y-49646971D01*
X184952777Y-49784914D01*
X184950057Y-49954191D01*
X184948465Y-50157968D01*
X184947723Y-50399411D01*
X184947550Y-50681687D01*
X184947668Y-51007964D01*
X184947797Y-51381407D01*
X184947800Y-51440500D01*
X184947878Y-51815884D01*
X184948151Y-52143711D01*
X184948682Y-52427221D01*
X184949531Y-52669658D01*
X184950760Y-52874261D01*
X184952431Y-53044274D01*
X184954605Y-53182939D01*
X184957343Y-53293496D01*
X184960708Y-53379188D01*
X184964759Y-53443257D01*
X184969559Y-53488944D01*
X184975169Y-53519492D01*
X184981651Y-53538141D01*
X184987715Y-53546885D01*
X184998791Y-53553992D01*
X185018999Y-53560213D01*
X185051510Y-53565606D01*
X185099497Y-53570229D01*
X185166133Y-53574140D01*
X185254590Y-53577396D01*
X185368040Y-53580056D01*
X185509656Y-53582175D01*
X185682610Y-53583813D01*
X185890076Y-53585028D01*
X186135224Y-53585876D01*
X186421229Y-53586415D01*
X186751261Y-53586703D01*
X187128495Y-53586798D01*
X187183001Y-53586800D01*
X187566824Y-53586726D01*
X187903020Y-53586467D01*
X188194761Y-53585965D01*
X188445219Y-53585162D01*
X188657568Y-53584000D01*
X188834979Y-53582422D01*
X188980625Y-53580371D01*
X189097678Y-53577787D01*
X189189312Y-53574615D01*
X189258697Y-53570795D01*
X189309008Y-53566271D01*
X189343416Y-53560985D01*
X189365093Y-53554879D01*
X189377213Y-53547895D01*
X189378286Y-53546885D01*
X189385535Y-53535627D01*
X189391862Y-53515152D01*
X189397328Y-53482219D01*
X189401994Y-53433586D01*
X189405922Y-53366011D01*
X189409174Y-53276252D01*
X189411810Y-53161068D01*
X189413893Y-53017217D01*
X189415483Y-52841456D01*
X189416642Y-52630544D01*
X189417432Y-52381239D01*
X189417914Y-52090300D01*
X189418149Y-51754484D01*
X189418200Y-51440500D01*
X189418123Y-51065115D01*
X189417850Y-50737288D01*
X189417319Y-50453778D01*
X189416470Y-50211341D01*
X189415241Y-50006738D01*
X189414052Y-49885729D01*
X189138801Y-49885729D01*
X189128363Y-49910638D01*
X189102056Y-49964844D01*
X189088001Y-49992699D01*
X189077068Y-50015774D01*
X189067826Y-50041420D01*
X189060133Y-50073859D01*
X189053848Y-50117308D01*
X189048828Y-50175988D01*
X189044932Y-50254117D01*
X189042017Y-50355917D01*
X189039943Y-50485605D01*
X189038566Y-50647401D01*
X189037746Y-50845525D01*
X189037341Y-51084197D01*
X189037209Y-51367635D01*
X189037201Y-51504290D01*
X189037561Y-51767726D01*
X189038598Y-52016037D01*
X189040244Y-52244556D01*
X189042432Y-52448618D01*
X189045097Y-52623558D01*
X189048170Y-52764711D01*
X189051585Y-52867410D01*
X189055276Y-52926991D01*
X189057776Y-52940370D01*
X189082200Y-52980136D01*
X189108032Y-53034350D01*
X189137711Y-53104200D01*
X188611206Y-53103811D01*
X188456033Y-53102849D01*
X188321650Y-53100381D01*
X188215001Y-53096674D01*
X188143030Y-53091992D01*
X188112681Y-53086600D01*
X188112906Y-53084761D01*
X188142855Y-53050826D01*
X188178668Y-52992626D01*
X188182756Y-52984811D01*
X188197682Y-52947521D01*
X188208693Y-52897267D01*
X188216331Y-52826556D01*
X188221134Y-52727898D01*
X188223644Y-52593800D01*
X188224399Y-52416772D01*
X188224400Y-52406961D01*
X188223167Y-52229347D01*
X188219604Y-52086876D01*
X188213922Y-51983727D01*
X188206328Y-51924078D01*
X188199586Y-51910400D01*
X188170086Y-51929770D01*
X188132359Y-51976744D01*
X188130085Y-51980250D01*
X188089507Y-52037268D01*
X188055301Y-52075500D01*
X188024853Y-52112632D01*
X187984917Y-52174966D01*
X187971329Y-52198833D01*
X187929180Y-52265930D01*
X187866473Y-52354720D01*
X187795408Y-52448064D01*
X187781458Y-52465533D01*
X187673339Y-52608344D01*
X187582862Y-52744967D01*
X187514611Y-52867349D01*
X187473169Y-52967440D01*
X187462400Y-53025923D01*
X187462400Y-53104200D01*
X186335945Y-53104200D01*
X186348071Y-53090488D01*
X186192400Y-53090488D01*
X186168301Y-53094757D01*
X186101204Y-53098485D01*
X185998911Y-53101448D01*
X185869222Y-53103426D01*
X185719939Y-53104196D01*
X185709800Y-53104200D01*
X185533033Y-53103408D01*
X185401899Y-53100806D01*
X185311253Y-53096056D01*
X185255950Y-53088818D01*
X185230844Y-53078752D01*
X185228008Y-53072450D01*
X185242962Y-53028554D01*
X185266108Y-52991395D01*
X185275302Y-52972692D01*
X185282898Y-52940195D01*
X185289041Y-52889498D01*
X185293873Y-52816196D01*
X185297536Y-52715883D01*
X185300174Y-52584154D01*
X185301930Y-52416604D01*
X185302947Y-52208827D01*
X185303367Y-51956418D01*
X185303400Y-51842045D01*
X185303400Y-50742000D01*
X186168305Y-50742000D01*
X186129553Y-50816938D01*
X186119522Y-50842815D01*
X186111333Y-50881092D01*
X186104808Y-50936607D01*
X186099774Y-51014197D01*
X186096053Y-51118700D01*
X186093471Y-51254954D01*
X186091852Y-51427797D01*
X186091021Y-51642067D01*
X186090800Y-51884750D01*
X186090914Y-52136440D01*
X186091415Y-52342511D01*
X186092545Y-52508147D01*
X186094545Y-52638527D01*
X186097655Y-52738835D01*
X186102117Y-52814251D01*
X186108171Y-52869957D01*
X186116059Y-52911135D01*
X186126021Y-52942967D01*
X186138299Y-52970635D01*
X186141600Y-52977200D01*
X186172510Y-53040636D01*
X186190520Y-53083110D01*
X186192400Y-53090488D01*
X186348071Y-53090488D01*
X186397523Y-53034570D01*
X186441445Y-52985266D01*
X186469627Y-52954290D01*
X186471800Y-52952020D01*
X186529555Y-52888905D01*
X186601037Y-52804689D01*
X186676103Y-52712065D01*
X186744609Y-52623725D01*
X186796412Y-52552361D01*
X186816624Y-52520547D01*
X186856845Y-52456584D01*
X186920338Y-52365299D01*
X186998196Y-52258680D01*
X187081513Y-52148715D01*
X187161383Y-52047390D01*
X187223727Y-51972607D01*
X187284171Y-51895548D01*
X187340841Y-51811943D01*
X187345022Y-51805050D01*
X187472363Y-51606936D01*
X187568006Y-51476356D01*
X187637964Y-51385212D01*
X187556532Y-51297760D01*
X187486340Y-51218661D01*
X187396285Y-51111892D01*
X187296943Y-50990451D01*
X187198893Y-50867339D01*
X187112711Y-50755555D01*
X187083849Y-50716815D01*
X186779059Y-50336892D01*
X186539721Y-50079787D01*
X186340941Y-49878400D01*
X186886253Y-49878400D01*
X187071450Y-49878523D01*
X187212002Y-49879861D01*
X187314063Y-49883867D01*
X187383788Y-49891993D01*
X187427331Y-49905691D01*
X187450847Y-49926416D01*
X187460489Y-49955618D01*
X187462414Y-49994751D01*
X187462400Y-50014390D01*
X187477988Y-50067842D01*
X187517059Y-50135121D01*
X187534701Y-50158362D01*
X187593348Y-50235668D01*
X187656110Y-50326586D01*
X187678198Y-50361000D01*
X187721448Y-50427764D01*
X187755088Y-50474931D01*
X187766761Y-50488000D01*
X187796555Y-50517339D01*
X187845755Y-50573018D01*
X187905478Y-50644108D01*
X187966838Y-50719681D01*
X188020953Y-50788808D01*
X188058937Y-50840561D01*
X188072000Y-50863483D01*
X188088818Y-50892974D01*
X188130854Y-50940717D01*
X188148201Y-50957900D01*
X188224401Y-51030904D01*
X188224400Y-50611088D01*
X188222807Y-50428302D01*
X188217105Y-50285476D01*
X188205907Y-50171840D01*
X188187828Y-50076629D01*
X188161482Y-49989075D01*
X188135836Y-49922850D01*
X188132606Y-49907771D01*
X188141351Y-49896538D01*
X188168295Y-49888591D01*
X188219662Y-49883367D01*
X188301676Y-49880303D01*
X188420561Y-49878838D01*
X188582540Y-49878410D01*
X188628083Y-49878400D01*
X188782917Y-49878746D01*
X188918878Y-49879712D01*
X189028383Y-49881190D01*
X189103849Y-49883071D01*
X189137692Y-49885245D01*
X189138801Y-49885729D01*
X189414052Y-49885729D01*
X189413570Y-49836725D01*
X189411396Y-49698060D01*
X189408658Y-49587503D01*
X189405293Y-49501811D01*
X189401242Y-49437742D01*
X189396442Y-49392055D01*
X189390832Y-49361507D01*
X189384350Y-49342858D01*
X189378286Y-49334114D01*
X189365822Y-49325934D01*
X189343563Y-49318938D01*
X189307809Y-49313034D01*
X189254859Y-49308133D01*
X189181012Y-49304144D01*
X189082569Y-49300978D01*
X188955827Y-49298544D01*
X188797087Y-49296752D01*
X188602647Y-49295511D01*
X188368807Y-49294733D01*
X188091865Y-49294326D01*
X187768122Y-49294200D01*
X186141600Y-49294200D01*
X186141600Y-49390418D01*
X186121521Y-49506335D01*
X186068475Y-49625000D01*
X185993246Y-49725991D01*
X185940994Y-49770244D01*
X185827454Y-49817370D01*
X185696500Y-49827636D01*
X185562372Y-49803918D01*
X185439310Y-49749089D01*
X185341552Y-49666023D01*
X185326200Y-49646147D01*
X185279194Y-49545428D01*
X185257561Y-49429877D01*
X185246310Y-49294199D01*
X185136970Y-49294200D01*
X185103420Y-49292977D01*
X185074069Y-49291421D01*
X185048637Y-49292699D01*
D14*
X154715000Y-85360000D02*
X154390000Y-85360000D01*
X157610000Y-82140000D02*
X157610000Y-82465000D01*
X157285000Y-82140000D02*
X157610000Y-82140000D01*
X154390000Y-82140000D02*
X154390000Y-82465000D01*
X154715000Y-82140000D02*
X154390000Y-82140000D01*
X157610000Y-85360000D02*
X157610000Y-85035000D01*
X157285000Y-85360000D02*
X157610000Y-85360000D01*
X173440000Y-86860000D02*
X172890000Y-86860000D01*
X179110000Y-80640000D02*
X179110000Y-81190000D01*
X178560000Y-80640000D02*
X179110000Y-80640000D01*
X172890000Y-80640000D02*
X172890000Y-81190000D01*
X173440000Y-80640000D02*
X172890000Y-80640000D01*
X179110000Y-86860000D02*
X179110000Y-86310000D01*
X178560000Y-86860000D02*
X179110000Y-86860000D01*
X153890000Y-68360000D02*
X153390000Y-68360000D01*
X162610000Y-59140000D02*
X162610000Y-59640000D01*
X162110000Y-59140000D02*
X162610000Y-59140000D01*
X153390000Y-59140000D02*
X153390000Y-59640000D01*
X153890000Y-59140000D02*
X153390000Y-59140000D01*
X162610000Y-68360000D02*
X162610000Y-67860000D01*
X162110000Y-68360000D02*
X162610000Y-68360000D01*
D15*
G04 #@! TO.C,G\002A\002A\002A*
G36*
X186269916Y-59158569D02*
X186269818Y-59161779D01*
X186269530Y-59170136D01*
X186269058Y-59183444D01*
X186268409Y-59201506D01*
X186267592Y-59224124D01*
X186266612Y-59251104D01*
X186265478Y-59282247D01*
X186264196Y-59317357D01*
X186262774Y-59356238D01*
X186261219Y-59398694D01*
X186259537Y-59444526D01*
X186257738Y-59493539D01*
X186255827Y-59545537D01*
X186253811Y-59600321D01*
X186251699Y-59657697D01*
X186249497Y-59717467D01*
X186247212Y-59779434D01*
X186244852Y-59843403D01*
X186242424Y-59909176D01*
X186239934Y-59976556D01*
X186237391Y-60045348D01*
X186236494Y-60069627D01*
X186231224Y-60212109D01*
X186226148Y-60349369D01*
X186221261Y-60481530D01*
X186216559Y-60608712D01*
X186212037Y-60731039D01*
X186207691Y-60848631D01*
X186203516Y-60961610D01*
X186199508Y-61070100D01*
X186195662Y-61174221D01*
X186191974Y-61274095D01*
X186188440Y-61369845D01*
X186185054Y-61461591D01*
X186181813Y-61549457D01*
X186178712Y-61633564D01*
X186175746Y-61714033D01*
X186172912Y-61790988D01*
X186170204Y-61864549D01*
X186167618Y-61934838D01*
X186165149Y-62001978D01*
X186162794Y-62066091D01*
X186160548Y-62127298D01*
X186158406Y-62185720D01*
X186156363Y-62241481D01*
X186154416Y-62294702D01*
X186152560Y-62345505D01*
X186150790Y-62394011D01*
X186149102Y-62440343D01*
X186147491Y-62484623D01*
X186145953Y-62526972D01*
X186144484Y-62567512D01*
X186143078Y-62606365D01*
X186141733Y-62643654D01*
X186140442Y-62679500D01*
X186139202Y-62714024D01*
X186138008Y-62747350D01*
X186136856Y-62779598D01*
X186135740Y-62810891D01*
X186134658Y-62841350D01*
X186133604Y-62871098D01*
X186132573Y-62900256D01*
X186131562Y-62928946D01*
X186130566Y-62957290D01*
X186129580Y-62985410D01*
X186129497Y-62987782D01*
X186127840Y-63034939D01*
X186126223Y-63080635D01*
X186124655Y-63124586D01*
X186123149Y-63166506D01*
X186121714Y-63206111D01*
X186120362Y-63243115D01*
X186119102Y-63277233D01*
X186117945Y-63308180D01*
X186116902Y-63335672D01*
X186115984Y-63359424D01*
X186115201Y-63379149D01*
X186114564Y-63394564D01*
X186114084Y-63405383D01*
X186113771Y-63411321D01*
X186113664Y-63412428D01*
X186112461Y-63410668D01*
X186110395Y-63405079D01*
X186108591Y-63399193D01*
X186090877Y-63337383D01*
X186072732Y-63274278D01*
X186054265Y-63210243D01*
X186035583Y-63145644D01*
X186016793Y-63080848D01*
X185998003Y-63016220D01*
X185979319Y-62952126D01*
X185960851Y-62888932D01*
X185942704Y-62827005D01*
X185924987Y-62766709D01*
X185907807Y-62708411D01*
X185891271Y-62652477D01*
X185875488Y-62599272D01*
X185860563Y-62549163D01*
X185846605Y-62502516D01*
X185833722Y-62459695D01*
X185822020Y-62421069D01*
X185811608Y-62387001D01*
X185806041Y-62368958D01*
X185798114Y-62343367D01*
X185788720Y-62313044D01*
X185777978Y-62278362D01*
X185766002Y-62239697D01*
X185752910Y-62197425D01*
X185738816Y-62151920D01*
X185723838Y-62103558D01*
X185708092Y-62052713D01*
X185691693Y-61999760D01*
X185674758Y-61945075D01*
X185657403Y-61889033D01*
X185639744Y-61832009D01*
X185621897Y-61774377D01*
X185603979Y-61716514D01*
X185586106Y-61658794D01*
X185568393Y-61601592D01*
X185560948Y-61577547D01*
X185543826Y-61522254D01*
X185526767Y-61467161D01*
X185509866Y-61412579D01*
X185493220Y-61358820D01*
X185476925Y-61306196D01*
X185461078Y-61255018D01*
X185445775Y-61205598D01*
X185431113Y-61158247D01*
X185417188Y-61113276D01*
X185404096Y-61070998D01*
X185391935Y-61031723D01*
X185380800Y-60995763D01*
X185370788Y-60963429D01*
X185361995Y-60935034D01*
X185354518Y-60910889D01*
X185348454Y-60891304D01*
X185344865Y-60879716D01*
X185302640Y-60743358D01*
X184992726Y-60742678D01*
X184682812Y-60741999D01*
X184667837Y-60790805D01*
X184664868Y-60800470D01*
X184660459Y-60814801D01*
X184654748Y-60833355D01*
X184647870Y-60855689D01*
X184639963Y-60881359D01*
X184631163Y-60909921D01*
X184621607Y-60940932D01*
X184611432Y-60973948D01*
X184600774Y-61008527D01*
X184589769Y-61044224D01*
X184578555Y-61080596D01*
X184576191Y-61088263D01*
X184563749Y-61128615D01*
X184550631Y-61171157D01*
X184537075Y-61215123D01*
X184523317Y-61259745D01*
X184509592Y-61304257D01*
X184496139Y-61347892D01*
X184483192Y-61389883D01*
X184470989Y-61429463D01*
X184459766Y-61465866D01*
X184449759Y-61498324D01*
X184445117Y-61513379D01*
X184436503Y-61541319D01*
X184426514Y-61573716D01*
X184415352Y-61609920D01*
X184403216Y-61649277D01*
X184390309Y-61691136D01*
X184376832Y-61734845D01*
X184362984Y-61779752D01*
X184348968Y-61825206D01*
X184334985Y-61870552D01*
X184321235Y-61915141D01*
X184307919Y-61958320D01*
X184302490Y-61975926D01*
X184279606Y-62050137D01*
X184258241Y-62119435D01*
X184238334Y-62184016D01*
X184219827Y-62244076D01*
X184202658Y-62299813D01*
X184186769Y-62351421D01*
X184172099Y-62399098D01*
X184158589Y-62443039D01*
X184146178Y-62483440D01*
X184134807Y-62520498D01*
X184124416Y-62554409D01*
X184114945Y-62585370D01*
X184106334Y-62613575D01*
X184098523Y-62639223D01*
X184091452Y-62662508D01*
X184085062Y-62683627D01*
X184079293Y-62702776D01*
X184074084Y-62720152D01*
X184069377Y-62735950D01*
X184065110Y-62750367D01*
X184061224Y-62763599D01*
X184057660Y-62775842D01*
X184054357Y-62787293D01*
X184051255Y-62798147D01*
X184048295Y-62808601D01*
X184047116Y-62812790D01*
X184041903Y-62831335D01*
X184035441Y-62854310D01*
X184027932Y-62880996D01*
X184019578Y-62910676D01*
X184010581Y-62942633D01*
X184001144Y-62976149D01*
X183991467Y-63010507D01*
X183981754Y-63044988D01*
X183972206Y-63078875D01*
X183969207Y-63089516D01*
X183960037Y-63122057D01*
X183950853Y-63154657D01*
X183941826Y-63186701D01*
X183933130Y-63217576D01*
X183924937Y-63246671D01*
X183917421Y-63273371D01*
X183910752Y-63297063D01*
X183905105Y-63317136D01*
X183900651Y-63332975D01*
X183898956Y-63339004D01*
X183893026Y-63359691D01*
X183888047Y-63376174D01*
X183884094Y-63388224D01*
X183881244Y-63395613D01*
X183879573Y-63398114D01*
X183879292Y-63397825D01*
X183879037Y-63394631D01*
X183878696Y-63386392D01*
X183878277Y-63373409D01*
X183877785Y-63355985D01*
X183877229Y-63334421D01*
X183876614Y-63309018D01*
X183875947Y-63280079D01*
X183875236Y-63247904D01*
X183874486Y-63212796D01*
X183873706Y-63175056D01*
X183872901Y-63134986D01*
X183872078Y-63092888D01*
X183871245Y-63049062D01*
X183870410Y-63003958D01*
X183869133Y-62935396D01*
X183867888Y-62871592D01*
X183866660Y-62811958D01*
X183865433Y-62755904D01*
X183864192Y-62702841D01*
X183862920Y-62652180D01*
X183861603Y-62603334D01*
X183860225Y-62555711D01*
X183858770Y-62508725D01*
X183857222Y-62461785D01*
X183855566Y-62414302D01*
X183853787Y-62365689D01*
X183852799Y-62339547D01*
X183851279Y-62299752D01*
X183849568Y-62254939D01*
X183847676Y-62205437D01*
X183845618Y-62151571D01*
X183843404Y-62093669D01*
X183841048Y-62032058D01*
X183838562Y-61967063D01*
X183835959Y-61899012D01*
X183833251Y-61828232D01*
X183830451Y-61755049D01*
X183827570Y-61679790D01*
X183824623Y-61602782D01*
X183821621Y-61524351D01*
X183818577Y-61444825D01*
X183815503Y-61364530D01*
X183813473Y-61311516D01*
X183018330Y-61311516D01*
X182411688Y-61311516D01*
X182413114Y-61305500D01*
X182413864Y-61302168D01*
X182415697Y-61293940D01*
X182418543Y-61281140D01*
X182422327Y-61264093D01*
X182426980Y-61243123D01*
X182432428Y-61218555D01*
X182438601Y-61190714D01*
X182445425Y-61159924D01*
X182452829Y-61126510D01*
X182460741Y-61090796D01*
X182469089Y-61053107D01*
X182477801Y-61013768D01*
X182484987Y-60981316D01*
X182494927Y-60936419D01*
X182505856Y-60887059D01*
X182517605Y-60833996D01*
X182530006Y-60777988D01*
X182542890Y-60719794D01*
X182556091Y-60660173D01*
X182569440Y-60599883D01*
X182582769Y-60539683D01*
X182595909Y-60480331D01*
X182608694Y-60422587D01*
X182620956Y-60367209D01*
X182632525Y-60314956D01*
X182636680Y-60296190D01*
X182717633Y-59930558D01*
X181803840Y-59930558D01*
X181658760Y-60607000D01*
X181646044Y-60666290D01*
X181633603Y-60724297D01*
X181621485Y-60780799D01*
X181609739Y-60835572D01*
X181598411Y-60888392D01*
X181587550Y-60939035D01*
X181577204Y-60987278D01*
X181567421Y-61032898D01*
X181558249Y-61075669D01*
X181549735Y-61115370D01*
X181541928Y-61151777D01*
X181534876Y-61184665D01*
X181528627Y-61213810D01*
X181523228Y-61238991D01*
X181518728Y-61259982D01*
X181515174Y-61276560D01*
X181512615Y-61288502D01*
X181511098Y-61295583D01*
X181510695Y-61297470D01*
X181507709Y-61311499D01*
X181099492Y-61312184D01*
X181052527Y-61312267D01*
X181006617Y-61312355D01*
X180962087Y-61312448D01*
X180919261Y-61312545D01*
X180878464Y-61312644D01*
X180840022Y-61312746D01*
X180804258Y-61312847D01*
X180771497Y-61312949D01*
X180742066Y-61313049D01*
X180716287Y-61313148D01*
X180694487Y-61313243D01*
X180676990Y-61313334D01*
X180664120Y-61313420D01*
X180656204Y-61313500D01*
X180655179Y-61313516D01*
X180640013Y-61313577D01*
X180621322Y-61313331D01*
X180600919Y-61312819D01*
X180580616Y-61312083D01*
X180568285Y-61311502D01*
X180497554Y-61306298D01*
X180431001Y-61298258D01*
X180368207Y-61287279D01*
X180308754Y-61273260D01*
X180252223Y-61256096D01*
X180198196Y-61235685D01*
X180146255Y-61211925D01*
X180131137Y-61204192D01*
X180080041Y-61174634D01*
X180032524Y-61141476D01*
X179988768Y-61104922D01*
X179948957Y-61065182D01*
X179913272Y-61022460D01*
X179881897Y-60976965D01*
X179855013Y-60928902D01*
X179832804Y-60878479D01*
X179825213Y-60857527D01*
X179808206Y-60801363D01*
X179795434Y-60744859D01*
X179786747Y-60687073D01*
X179781995Y-60627063D01*
X179780922Y-60578926D01*
X179783053Y-60516302D01*
X179789390Y-60456927D01*
X179799928Y-60400815D01*
X179814662Y-60347978D01*
X179833588Y-60298429D01*
X179856699Y-60252179D01*
X179883991Y-60209243D01*
X179915458Y-60169631D01*
X179951096Y-60133357D01*
X179974727Y-60112997D01*
X180017973Y-60080981D01*
X180064699Y-60052154D01*
X180115040Y-60026469D01*
X180169135Y-60003878D01*
X180227120Y-59984334D01*
X180289132Y-59967790D01*
X180355307Y-59954197D01*
X180425784Y-59943510D01*
X180482727Y-59937263D01*
X180493560Y-59936334D01*
X180505456Y-59935476D01*
X180518625Y-59934685D01*
X180533279Y-59933961D01*
X180549626Y-59933301D01*
X180567879Y-59932703D01*
X180588248Y-59932165D01*
X180610943Y-59931684D01*
X180636175Y-59931259D01*
X180664154Y-59930888D01*
X180695092Y-59930568D01*
X180729198Y-59930298D01*
X180766684Y-59930075D01*
X180807760Y-59929898D01*
X180852636Y-59929763D01*
X180901523Y-59929670D01*
X180954632Y-59929615D01*
X181012174Y-59929598D01*
X181074358Y-59929615D01*
X181141396Y-59929666D01*
X181213499Y-59929747D01*
X181239536Y-59929781D01*
X181803840Y-59930558D01*
X182717633Y-59930558D01*
X182717927Y-59929232D01*
X182828165Y-59929227D01*
X182938404Y-59929221D01*
X182939625Y-59935237D01*
X182939918Y-59938586D01*
X182940487Y-59946963D01*
X182941315Y-59960054D01*
X182942384Y-59977546D01*
X182943674Y-59999128D01*
X182945168Y-60024487D01*
X182946848Y-60053311D01*
X182948696Y-60085287D01*
X182950693Y-60120103D01*
X182952822Y-60157446D01*
X182955064Y-60197004D01*
X182957400Y-60238464D01*
X182959814Y-60281515D01*
X182961193Y-60306211D01*
X182963765Y-60352336D01*
X182966344Y-60398526D01*
X182968903Y-60444334D01*
X182971419Y-60489315D01*
X182973865Y-60533021D01*
X182976216Y-60575007D01*
X182978449Y-60614827D01*
X182980537Y-60652033D01*
X182982456Y-60686179D01*
X182984180Y-60716819D01*
X182985686Y-60743507D01*
X182986946Y-60765796D01*
X182987938Y-60783241D01*
X182988027Y-60784800D01*
X182989331Y-60807719D01*
X182990884Y-60835150D01*
X182992639Y-60866268D01*
X182994551Y-60900245D01*
X182996573Y-60936256D01*
X182998658Y-60973473D01*
X183000761Y-61011071D01*
X183002834Y-61048222D01*
X183004831Y-61084101D01*
X183005211Y-61090937D01*
X183006994Y-61122912D01*
X183008717Y-61153614D01*
X183010354Y-61182580D01*
X183011878Y-61209347D01*
X183013263Y-61233453D01*
X183014481Y-61254434D01*
X183015506Y-61271829D01*
X183016311Y-61285174D01*
X183016870Y-61294006D01*
X183017119Y-61297479D01*
X183018330Y-61311516D01*
X183813473Y-61311516D01*
X183812411Y-61283792D01*
X183809315Y-61202940D01*
X183806227Y-61122298D01*
X183803159Y-61042195D01*
X183800124Y-60962956D01*
X183797134Y-60884909D01*
X183794202Y-60808380D01*
X183791340Y-60733697D01*
X183788561Y-60661185D01*
X183785878Y-60591171D01*
X183783302Y-60523983D01*
X183780847Y-60459947D01*
X183778524Y-60399390D01*
X183776347Y-60342639D01*
X183775411Y-60318242D01*
X183773318Y-60263633D01*
X183771093Y-60205491D01*
X183768765Y-60144554D01*
X183766362Y-60081563D01*
X183763912Y-60017258D01*
X183761443Y-59952378D01*
X183758983Y-59887663D01*
X183756560Y-59823852D01*
X183754203Y-59761685D01*
X183751940Y-59701903D01*
X183749798Y-59645244D01*
X183747805Y-59592448D01*
X183745991Y-59544255D01*
X183745989Y-59544211D01*
X183744339Y-59500492D01*
X183742725Y-59458050D01*
X183741160Y-59417212D01*
X183739656Y-59378306D01*
X183738228Y-59341661D01*
X183736888Y-59307602D01*
X183735649Y-59276460D01*
X183734524Y-59248560D01*
X183733527Y-59224231D01*
X183732670Y-59203800D01*
X183731966Y-59187596D01*
X183731429Y-59175946D01*
X183731071Y-59169177D01*
X183730980Y-59167890D01*
X183729491Y-59151179D01*
X182076698Y-59151195D01*
X181957577Y-59151200D01*
X181842177Y-59151215D01*
X181730562Y-59151237D01*
X181622798Y-59151268D01*
X181518951Y-59151308D01*
X181419087Y-59151355D01*
X181323271Y-59151411D01*
X181231568Y-59151475D01*
X181144044Y-59151547D01*
X181060764Y-59151626D01*
X180981795Y-59151714D01*
X180907201Y-59151809D01*
X180837048Y-59151911D01*
X180771402Y-59152021D01*
X180710328Y-59152138D01*
X180653892Y-59152263D01*
X180602159Y-59152394D01*
X180555194Y-59152533D01*
X180513064Y-59152678D01*
X180475834Y-59152830D01*
X180443569Y-59152989D01*
X180416335Y-59153155D01*
X180394197Y-59153327D01*
X180377221Y-59153506D01*
X180365472Y-59153690D01*
X180359737Y-59153849D01*
X180252350Y-59159533D01*
X180149532Y-59167588D01*
X180051041Y-59178050D01*
X179956635Y-59190956D01*
X179866072Y-59206342D01*
X179779109Y-59224245D01*
X179695505Y-59244701D01*
X179623137Y-59265263D01*
X179538298Y-59293224D01*
X179457842Y-59324247D01*
X179381768Y-59358334D01*
X179310075Y-59395488D01*
X179242760Y-59435711D01*
X179179822Y-59479005D01*
X179121260Y-59525373D01*
X179067070Y-59574818D01*
X179017253Y-59627340D01*
X178971806Y-59682943D01*
X178930726Y-59741629D01*
X178894014Y-59803400D01*
X178861667Y-59868259D01*
X178833682Y-59936207D01*
X178810059Y-60007248D01*
X178790796Y-60081383D01*
X178775892Y-60158616D01*
X178765343Y-60238947D01*
X178759149Y-60322380D01*
X178757308Y-60408916D01*
X178757637Y-60437221D01*
X178761602Y-60527065D01*
X178769972Y-60613912D01*
X178782770Y-60697828D01*
X178800017Y-60778878D01*
X178821736Y-60857127D01*
X178847947Y-60932642D01*
X178878674Y-61005488D01*
X178913937Y-61075731D01*
X178953760Y-61143436D01*
X178998163Y-61208668D01*
X179029202Y-61249409D01*
X179041185Y-61263696D01*
X179056458Y-61280684D01*
X179074242Y-61299603D01*
X179093761Y-61319679D01*
X179114237Y-61340144D01*
X179134892Y-61360225D01*
X179154951Y-61379150D01*
X179173635Y-61396150D01*
X179190167Y-61410452D01*
X179197719Y-61416617D01*
X179255336Y-61459148D01*
X179316635Y-61498203D01*
X179380937Y-61533402D01*
X179447563Y-61564364D01*
X179494765Y-61583144D01*
X179522265Y-61593344D01*
X179480874Y-61601823D01*
X179402735Y-61620406D01*
X179326606Y-61643690D01*
X179252748Y-61671558D01*
X179181421Y-61703895D01*
X179112887Y-61740587D01*
X179047407Y-61781516D01*
X179001506Y-61814138D01*
X178941723Y-61862247D01*
X178885815Y-61914029D01*
X178833823Y-61969430D01*
X178785785Y-62028398D01*
X178741740Y-62090881D01*
X178701726Y-62156827D01*
X178665783Y-62226183D01*
X178633949Y-62298897D01*
X178625867Y-62319614D01*
X178602496Y-62388149D01*
X178583321Y-62459755D01*
X178568339Y-62534470D01*
X178557545Y-62612328D01*
X178550938Y-62693368D01*
X178548513Y-62777623D01*
X178550267Y-62865131D01*
X178556197Y-62955928D01*
X178561905Y-63013316D01*
X178574447Y-63104465D01*
X178591329Y-63192522D01*
X178612565Y-63277541D01*
X178638172Y-63359574D01*
X178668163Y-63438676D01*
X178702556Y-63514900D01*
X178707502Y-63524903D01*
X178740432Y-63587059D01*
X178775210Y-63645136D01*
X178812505Y-63700052D01*
X178852985Y-63752721D01*
X178897320Y-63804060D01*
X178946178Y-63854984D01*
X178955018Y-63863702D01*
X179015429Y-63919155D01*
X179080182Y-63971557D01*
X179149212Y-64020883D01*
X179222455Y-64067109D01*
X179299844Y-64110213D01*
X179381316Y-64150168D01*
X179466804Y-64186954D01*
X179556244Y-64220544D01*
X179649572Y-64250916D01*
X179746721Y-64278046D01*
X179847627Y-64301911D01*
X179952225Y-64322485D01*
X180060450Y-64339747D01*
X180172236Y-64353671D01*
X180287519Y-64364234D01*
X180334337Y-64367496D01*
X180349367Y-64368440D01*
X180363802Y-64369314D01*
X180377890Y-64370122D01*
X180391875Y-64370865D01*
X180406005Y-64371549D01*
X180420524Y-64372175D01*
X180435680Y-64372747D01*
X180451717Y-64373269D01*
X180468882Y-64373742D01*
X180487421Y-64374171D01*
X180507580Y-64374559D01*
X180529604Y-64374908D01*
X180553741Y-64375222D01*
X180580235Y-64375504D01*
X180609333Y-64375757D01*
X180641280Y-64375985D01*
X180676323Y-64376190D01*
X180714708Y-64376375D01*
X180756681Y-64376545D01*
X180802487Y-64376701D01*
X180852373Y-64376848D01*
X180906585Y-64376987D01*
X180965368Y-64377123D01*
X181028969Y-64377259D01*
X181097633Y-64377397D01*
X181108660Y-64377419D01*
X181731920Y-64378642D01*
X181737618Y-64353705D01*
X181738633Y-64349185D01*
X181740765Y-64339615D01*
X181743978Y-64325167D01*
X181748233Y-64306011D01*
X181753493Y-64282320D01*
X181759719Y-64254263D01*
X181766873Y-64222014D01*
X181774917Y-64185741D01*
X181783815Y-64145618D01*
X181793526Y-64101814D01*
X181804015Y-64054502D01*
X181815242Y-64003853D01*
X181827170Y-63950037D01*
X181839761Y-63893226D01*
X181852977Y-63833592D01*
X181866779Y-63771304D01*
X181881131Y-63706536D01*
X181895994Y-63639457D01*
X181911330Y-63570240D01*
X181927101Y-63499054D01*
X181943269Y-63426072D01*
X181959797Y-63351465D01*
X181976646Y-63275404D01*
X181993779Y-63198061D01*
X182011157Y-63119605D01*
X182028742Y-63040209D01*
X182046498Y-62960044D01*
X182064385Y-62879282D01*
X182082365Y-62798092D01*
X182100402Y-62716647D01*
X182118456Y-62635118D01*
X182136491Y-62553675D01*
X182154467Y-62472491D01*
X182164663Y-62426442D01*
X182173430Y-62386854D01*
X182181986Y-62348230D01*
X182190247Y-62310951D01*
X182198128Y-62275395D01*
X182205546Y-62241944D01*
X182212416Y-62210976D01*
X182218654Y-62182873D01*
X182224175Y-62158013D01*
X182228895Y-62136777D01*
X182232729Y-62119544D01*
X182235595Y-62106695D01*
X182237406Y-62098610D01*
X182237639Y-62097579D01*
X182245199Y-62064158D01*
X182265696Y-62064124D01*
X181346518Y-62064124D01*
X181341558Y-62086867D01*
X181340582Y-62091387D01*
X181338532Y-62100916D01*
X181335454Y-62115237D01*
X181331396Y-62134131D01*
X181326405Y-62157380D01*
X181320527Y-62184765D01*
X181313809Y-62216068D01*
X181306299Y-62251070D01*
X181298042Y-62289552D01*
X181289086Y-62331297D01*
X181279478Y-62376086D01*
X181269265Y-62423701D01*
X181258493Y-62473922D01*
X181247209Y-62526532D01*
X181235461Y-62581311D01*
X181223294Y-62638043D01*
X181210757Y-62696507D01*
X181197895Y-62756486D01*
X181184756Y-62817761D01*
X181180376Y-62838190D01*
X181167207Y-62899594D01*
X181154325Y-62959649D01*
X181141773Y-63018143D01*
X181129599Y-63074865D01*
X181117846Y-63129604D01*
X181106560Y-63182149D01*
X181095787Y-63232289D01*
X181085572Y-63279814D01*
X181075961Y-63324511D01*
X181066998Y-63366172D01*
X181058730Y-63404583D01*
X181051201Y-63439535D01*
X181044458Y-63470817D01*
X181038544Y-63498217D01*
X181033507Y-63521524D01*
X181029391Y-63540529D01*
X181026241Y-63555019D01*
X181024103Y-63564783D01*
X181023023Y-63569612D01*
X181022898Y-63570111D01*
X181020090Y-63570637D01*
X181012366Y-63571122D01*
X181000154Y-63571564D01*
X180983885Y-63571963D01*
X180963989Y-63572319D01*
X180940896Y-63572630D01*
X180915036Y-63572898D01*
X180886839Y-63573120D01*
X180856736Y-63573297D01*
X180825156Y-63573428D01*
X180792529Y-63573513D01*
X180759285Y-63573550D01*
X180725855Y-63573541D01*
X180692668Y-63573483D01*
X180660155Y-63573377D01*
X180628746Y-63573222D01*
X180598870Y-63573018D01*
X180570957Y-63572764D01*
X180545439Y-63572460D01*
X180522744Y-63572104D01*
X180503303Y-63571698D01*
X180487546Y-63571239D01*
X180476043Y-63570736D01*
X180403041Y-63565063D01*
X180334084Y-63556441D01*
X180268680Y-63544748D01*
X180206333Y-63529863D01*
X180146551Y-63511662D01*
X180088839Y-63490024D01*
X180032704Y-63464827D01*
X180017506Y-63457272D01*
X179960571Y-63425737D01*
X179907957Y-63391090D01*
X179859579Y-63353246D01*
X179815349Y-63312121D01*
X179775182Y-63267630D01*
X179738990Y-63219687D01*
X179706687Y-63168209D01*
X179688822Y-63134969D01*
X179667404Y-63088941D01*
X179649525Y-63042242D01*
X179634834Y-62993748D01*
X179622978Y-62942335D01*
X179615917Y-62902358D01*
X179614062Y-62886710D01*
X179612613Y-62866766D01*
X179611571Y-62843564D01*
X179610933Y-62818140D01*
X179610701Y-62791531D01*
X179610872Y-62764774D01*
X179611447Y-62738905D01*
X179612425Y-62714960D01*
X179613804Y-62693978D01*
X179615586Y-62676994D01*
X179616053Y-62673758D01*
X179627533Y-62614775D01*
X179643333Y-62558903D01*
X179663512Y-62506019D01*
X179688133Y-62456001D01*
X179717256Y-62408726D01*
X179750942Y-62364070D01*
X179789252Y-62321911D01*
X179791717Y-62319441D01*
X179832628Y-62281926D01*
X179877022Y-62247538D01*
X179925000Y-62216244D01*
X179976662Y-62188010D01*
X180032107Y-62162801D01*
X180091437Y-62140584D01*
X180154751Y-62121325D01*
X180222148Y-62104990D01*
X180293730Y-62091545D01*
X180369596Y-62080957D01*
X180449846Y-62073191D01*
X180533527Y-62068257D01*
X180543989Y-62067929D01*
X180559424Y-62067602D01*
X180579454Y-62067278D01*
X180603705Y-62066962D01*
X180631802Y-62066655D01*
X180663367Y-62066361D01*
X180698027Y-62066082D01*
X180735405Y-62065822D01*
X180775125Y-62065583D01*
X180816813Y-62065368D01*
X180860092Y-62065181D01*
X180904587Y-62065024D01*
X180949923Y-62064899D01*
X180972107Y-62064852D01*
X181346518Y-62064124D01*
X182265696Y-62064124D01*
X183061495Y-62062804D01*
X183061657Y-62078186D01*
X183061818Y-62081885D01*
X183062273Y-62090746D01*
X183063013Y-62104594D01*
X183064026Y-62123252D01*
X183065304Y-62146545D01*
X183066836Y-62174297D01*
X183068613Y-62206331D01*
X183070624Y-62242472D01*
X183072860Y-62282543D01*
X183075311Y-62326369D01*
X183077967Y-62373773D01*
X183080818Y-62424579D01*
X183083854Y-62478612D01*
X183087066Y-62535695D01*
X183090443Y-62595653D01*
X183093975Y-62658308D01*
X183097653Y-62723486D01*
X183101467Y-62791010D01*
X183105407Y-62860704D01*
X183109463Y-62932393D01*
X183113625Y-63005899D01*
X183117883Y-63081048D01*
X183122227Y-63157662D01*
X183126553Y-63233895D01*
X183191289Y-64374221D01*
X183769204Y-64374896D01*
X184347119Y-64375570D01*
X184349897Y-64366875D01*
X184356110Y-64347435D01*
X184363861Y-64323188D01*
X184373060Y-64294419D01*
X184383615Y-64261414D01*
X184395433Y-64224459D01*
X184408425Y-64183838D01*
X184422499Y-64139837D01*
X184437564Y-64092742D01*
X184453527Y-64042838D01*
X184470298Y-63990412D01*
X184487786Y-63935747D01*
X184505898Y-63879131D01*
X184524544Y-63820849D01*
X184543633Y-63761185D01*
X184563073Y-63700426D01*
X184582772Y-63638857D01*
X184602640Y-63576764D01*
X184622584Y-63514432D01*
X184642515Y-63452146D01*
X184662339Y-63390193D01*
X184681967Y-63328858D01*
X184685832Y-63316779D01*
X184706365Y-63252604D01*
X184725355Y-63193219D01*
X184742895Y-63138322D01*
X184759078Y-63087614D01*
X184773998Y-63040793D01*
X184787747Y-62997558D01*
X184800420Y-62957608D01*
X184812109Y-62920643D01*
X184822907Y-62886361D01*
X184832908Y-62854461D01*
X184842205Y-62824643D01*
X184850891Y-62796606D01*
X184859059Y-62770048D01*
X184866803Y-62744669D01*
X184874216Y-62720167D01*
X184881391Y-62696243D01*
X184888421Y-62672594D01*
X184895399Y-62648920D01*
X184902419Y-62624920D01*
X184909574Y-62600293D01*
X184916957Y-62574739D01*
X184924662Y-62547955D01*
X184932781Y-62519642D01*
X184933055Y-62518684D01*
X184948350Y-62465284D01*
X184962241Y-62416788D01*
X184974798Y-62372962D01*
X184986089Y-62333569D01*
X184996181Y-62298374D01*
X185005145Y-62267140D01*
X185013048Y-62239632D01*
X185019959Y-62215614D01*
X185025945Y-62194849D01*
X185031077Y-62177103D01*
X185035421Y-62162139D01*
X185039047Y-62149722D01*
X185042023Y-62139615D01*
X185044417Y-62131583D01*
X185046298Y-62125390D01*
X185047735Y-62120799D01*
X185048795Y-62117576D01*
X185049547Y-62115484D01*
X185050061Y-62114287D01*
X185050403Y-62113750D01*
X185050625Y-62113636D01*
X185051575Y-62116141D01*
X185053757Y-62123324D01*
X185057034Y-62134690D01*
X185061269Y-62149748D01*
X185066324Y-62168006D01*
X185072062Y-62188971D01*
X185078346Y-62212150D01*
X185085040Y-62237051D01*
X185086178Y-62241304D01*
X185092637Y-62265461D01*
X185100275Y-62294010D01*
X185108884Y-62326179D01*
X185118258Y-62361196D01*
X185128189Y-62398289D01*
X185138471Y-62436685D01*
X185148898Y-62475612D01*
X185159261Y-62514297D01*
X185169356Y-62551968D01*
X185176200Y-62577505D01*
X185232097Y-62786053D01*
X185375556Y-63236569D01*
X185392744Y-63290547D01*
X185410724Y-63347017D01*
X185429311Y-63405399D01*
X185448322Y-63465119D01*
X185467575Y-63525598D01*
X185486884Y-63586260D01*
X185506066Y-63646528D01*
X185524939Y-63705825D01*
X185543317Y-63763574D01*
X185561018Y-63819197D01*
X185577858Y-63872119D01*
X185593653Y-63921762D01*
X185608219Y-63967548D01*
X185621374Y-64008902D01*
X185623189Y-64014611D01*
X185636156Y-64055374D01*
X185648742Y-64094934D01*
X185660844Y-64132968D01*
X185672361Y-64169154D01*
X185683190Y-64203171D01*
X185693228Y-64234698D01*
X185702373Y-64263411D01*
X185710522Y-64288991D01*
X185717574Y-64311115D01*
X185723425Y-64329460D01*
X185727973Y-64343707D01*
X185731116Y-64353533D01*
X185732751Y-64358616D01*
X185732826Y-64358847D01*
X185738289Y-64375558D01*
X186844656Y-64375558D01*
X186845858Y-64369542D01*
X186846238Y-64365725D01*
X186846863Y-64357116D01*
X186847701Y-64344263D01*
X186848716Y-64327715D01*
X186849878Y-64308020D01*
X186851153Y-64285727D01*
X186852507Y-64261384D01*
X186853909Y-64235539D01*
X186853928Y-64235190D01*
X186854574Y-64223154D01*
X186855299Y-64209725D01*
X186856111Y-64194771D01*
X186857017Y-64178165D01*
X186858023Y-64159776D01*
X186859137Y-64139475D01*
X186860366Y-64117134D01*
X186861718Y-64092622D01*
X186863199Y-64065810D01*
X186864817Y-64036570D01*
X186866579Y-64004771D01*
X186868492Y-63970285D01*
X186870564Y-63932982D01*
X186872801Y-63892733D01*
X186875210Y-63849408D01*
X186877800Y-63802879D01*
X186880577Y-63753016D01*
X186883548Y-63699689D01*
X186886720Y-63642769D01*
X186890102Y-63582128D01*
X186893699Y-63517635D01*
X186897519Y-63449161D01*
X186901570Y-63376578D01*
X186905858Y-63299755D01*
X186910391Y-63218564D01*
X186915176Y-63132875D01*
X186920220Y-63042559D01*
X186925530Y-62947486D01*
X186931114Y-62847527D01*
X186936978Y-62742554D01*
X186943131Y-62632436D01*
X186946349Y-62574832D01*
X186948420Y-62537777D01*
X186950450Y-62501438D01*
X186952450Y-62465640D01*
X186954430Y-62430210D01*
X186956398Y-62394974D01*
X186958366Y-62359759D01*
X186960341Y-62324391D01*
X186962335Y-62288696D01*
X186964357Y-62252500D01*
X186966417Y-62215630D01*
X186968523Y-62177913D01*
X186970687Y-62139174D01*
X186972917Y-62099239D01*
X186975224Y-62057936D01*
X186977617Y-62015090D01*
X186980106Y-61970528D01*
X186982700Y-61924076D01*
X186985409Y-61875560D01*
X186988243Y-61824807D01*
X186991211Y-61771643D01*
X186994324Y-61715895D01*
X186997591Y-61657388D01*
X187001022Y-61595949D01*
X187004625Y-61531404D01*
X187008412Y-61463581D01*
X187012392Y-61392304D01*
X187016574Y-61317400D01*
X187020968Y-61238696D01*
X187025584Y-61156018D01*
X187030432Y-61069192D01*
X187035521Y-60978044D01*
X187040861Y-60882402D01*
X187046461Y-60782091D01*
X187052332Y-60676937D01*
X187058483Y-60566767D01*
X187063999Y-60467969D01*
X187067334Y-60408236D01*
X187070814Y-60345909D01*
X187074408Y-60281554D01*
X187078084Y-60215738D01*
X187081811Y-60149027D01*
X187085556Y-60081989D01*
X187089288Y-60015190D01*
X187092976Y-59949198D01*
X187096587Y-59884578D01*
X187100090Y-59821899D01*
X187103454Y-59761726D01*
X187106646Y-59704626D01*
X187109635Y-59651168D01*
X187112389Y-59601916D01*
X187114869Y-59557579D01*
X187117376Y-59512682D01*
X187119799Y-59469113D01*
X187122122Y-59427185D01*
X187124326Y-59387212D01*
X187126397Y-59349504D01*
X187128315Y-59314375D01*
X187130066Y-59282138D01*
X187131631Y-59253105D01*
X187132994Y-59227589D01*
X187134138Y-59205902D01*
X187135045Y-59188357D01*
X187135700Y-59175266D01*
X187136085Y-59166943D01*
X187136187Y-59163879D01*
X187136190Y-59151179D01*
X186269916Y-59151179D01*
X186269916Y-59158569D01*
X186269916Y-59158569D01*
G37*
X186269916Y-59158569D02*
X186269818Y-59161779D01*
X186269530Y-59170136D01*
X186269058Y-59183444D01*
X186268409Y-59201506D01*
X186267592Y-59224124D01*
X186266612Y-59251104D01*
X186265478Y-59282247D01*
X186264196Y-59317357D01*
X186262774Y-59356238D01*
X186261219Y-59398694D01*
X186259537Y-59444526D01*
X186257738Y-59493539D01*
X186255827Y-59545537D01*
X186253811Y-59600321D01*
X186251699Y-59657697D01*
X186249497Y-59717467D01*
X186247212Y-59779434D01*
X186244852Y-59843403D01*
X186242424Y-59909176D01*
X186239934Y-59976556D01*
X186237391Y-60045348D01*
X186236494Y-60069627D01*
X186231224Y-60212109D01*
X186226148Y-60349369D01*
X186221261Y-60481530D01*
X186216559Y-60608712D01*
X186212037Y-60731039D01*
X186207691Y-60848631D01*
X186203516Y-60961610D01*
X186199508Y-61070100D01*
X186195662Y-61174221D01*
X186191974Y-61274095D01*
X186188440Y-61369845D01*
X186185054Y-61461591D01*
X186181813Y-61549457D01*
X186178712Y-61633564D01*
X186175746Y-61714033D01*
X186172912Y-61790988D01*
X186170204Y-61864549D01*
X186167618Y-61934838D01*
X186165149Y-62001978D01*
X186162794Y-62066091D01*
X186160548Y-62127298D01*
X186158406Y-62185720D01*
X186156363Y-62241481D01*
X186154416Y-62294702D01*
X186152560Y-62345505D01*
X186150790Y-62394011D01*
X186149102Y-62440343D01*
X186147491Y-62484623D01*
X186145953Y-62526972D01*
X186144484Y-62567512D01*
X186143078Y-62606365D01*
X186141733Y-62643654D01*
X186140442Y-62679500D01*
X186139202Y-62714024D01*
X186138008Y-62747350D01*
X186136856Y-62779598D01*
X186135740Y-62810891D01*
X186134658Y-62841350D01*
X186133604Y-62871098D01*
X186132573Y-62900256D01*
X186131562Y-62928946D01*
X186130566Y-62957290D01*
X186129580Y-62985410D01*
X186129497Y-62987782D01*
X186127840Y-63034939D01*
X186126223Y-63080635D01*
X186124655Y-63124586D01*
X186123149Y-63166506D01*
X186121714Y-63206111D01*
X186120362Y-63243115D01*
X186119102Y-63277233D01*
X186117945Y-63308180D01*
X186116902Y-63335672D01*
X186115984Y-63359424D01*
X186115201Y-63379149D01*
X186114564Y-63394564D01*
X186114084Y-63405383D01*
X186113771Y-63411321D01*
X186113664Y-63412428D01*
X186112461Y-63410668D01*
X186110395Y-63405079D01*
X186108591Y-63399193D01*
X186090877Y-63337383D01*
X186072732Y-63274278D01*
X186054265Y-63210243D01*
X186035583Y-63145644D01*
X186016793Y-63080848D01*
X185998003Y-63016220D01*
X185979319Y-62952126D01*
X185960851Y-62888932D01*
X185942704Y-62827005D01*
X185924987Y-62766709D01*
X185907807Y-62708411D01*
X185891271Y-62652477D01*
X185875488Y-62599272D01*
X185860563Y-62549163D01*
X185846605Y-62502516D01*
X185833722Y-62459695D01*
X185822020Y-62421069D01*
X185811608Y-62387001D01*
X185806041Y-62368958D01*
X185798114Y-62343367D01*
X185788720Y-62313044D01*
X185777978Y-62278362D01*
X185766002Y-62239697D01*
X185752910Y-62197425D01*
X185738816Y-62151920D01*
X185723838Y-62103558D01*
X185708092Y-62052713D01*
X185691693Y-61999760D01*
X185674758Y-61945075D01*
X185657403Y-61889033D01*
X185639744Y-61832009D01*
X185621897Y-61774377D01*
X185603979Y-61716514D01*
X185586106Y-61658794D01*
X185568393Y-61601592D01*
X185560948Y-61577547D01*
X185543826Y-61522254D01*
X185526767Y-61467161D01*
X185509866Y-61412579D01*
X185493220Y-61358820D01*
X185476925Y-61306196D01*
X185461078Y-61255018D01*
X185445775Y-61205598D01*
X185431113Y-61158247D01*
X185417188Y-61113276D01*
X185404096Y-61070998D01*
X185391935Y-61031723D01*
X185380800Y-60995763D01*
X185370788Y-60963429D01*
X185361995Y-60935034D01*
X185354518Y-60910889D01*
X185348454Y-60891304D01*
X185344865Y-60879716D01*
X185302640Y-60743358D01*
X184992726Y-60742678D01*
X184682812Y-60741999D01*
X184667837Y-60790805D01*
X184664868Y-60800470D01*
X184660459Y-60814801D01*
X184654748Y-60833355D01*
X184647870Y-60855689D01*
X184639963Y-60881359D01*
X184631163Y-60909921D01*
X184621607Y-60940932D01*
X184611432Y-60973948D01*
X184600774Y-61008527D01*
X184589769Y-61044224D01*
X184578555Y-61080596D01*
X184576191Y-61088263D01*
X184563749Y-61128615D01*
X184550631Y-61171157D01*
X184537075Y-61215123D01*
X184523317Y-61259745D01*
X184509592Y-61304257D01*
X184496139Y-61347892D01*
X184483192Y-61389883D01*
X184470989Y-61429463D01*
X184459766Y-61465866D01*
X184449759Y-61498324D01*
X184445117Y-61513379D01*
X184436503Y-61541319D01*
X184426514Y-61573716D01*
X184415352Y-61609920D01*
X184403216Y-61649277D01*
X184390309Y-61691136D01*
X184376832Y-61734845D01*
X184362984Y-61779752D01*
X184348968Y-61825206D01*
X184334985Y-61870552D01*
X184321235Y-61915141D01*
X184307919Y-61958320D01*
X184302490Y-61975926D01*
X184279606Y-62050137D01*
X184258241Y-62119435D01*
X184238334Y-62184016D01*
X184219827Y-62244076D01*
X184202658Y-62299813D01*
X184186769Y-62351421D01*
X184172099Y-62399098D01*
X184158589Y-62443039D01*
X184146178Y-62483440D01*
X184134807Y-62520498D01*
X184124416Y-62554409D01*
X184114945Y-62585370D01*
X184106334Y-62613575D01*
X184098523Y-62639223D01*
X184091452Y-62662508D01*
X184085062Y-62683627D01*
X184079293Y-62702776D01*
X184074084Y-62720152D01*
X184069377Y-62735950D01*
X184065110Y-62750367D01*
X184061224Y-62763599D01*
X184057660Y-62775842D01*
X184054357Y-62787293D01*
X184051255Y-62798147D01*
X184048295Y-62808601D01*
X184047116Y-62812790D01*
X184041903Y-62831335D01*
X184035441Y-62854310D01*
X184027932Y-62880996D01*
X184019578Y-62910676D01*
X184010581Y-62942633D01*
X184001144Y-62976149D01*
X183991467Y-63010507D01*
X183981754Y-63044988D01*
X183972206Y-63078875D01*
X183969207Y-63089516D01*
X183960037Y-63122057D01*
X183950853Y-63154657D01*
X183941826Y-63186701D01*
X183933130Y-63217576D01*
X183924937Y-63246671D01*
X183917421Y-63273371D01*
X183910752Y-63297063D01*
X183905105Y-63317136D01*
X183900651Y-63332975D01*
X183898956Y-63339004D01*
X183893026Y-63359691D01*
X183888047Y-63376174D01*
X183884094Y-63388224D01*
X183881244Y-63395613D01*
X183879573Y-63398114D01*
X183879292Y-63397825D01*
X183879037Y-63394631D01*
X183878696Y-63386392D01*
X183878277Y-63373409D01*
X183877785Y-63355985D01*
X183877229Y-63334421D01*
X183876614Y-63309018D01*
X183875947Y-63280079D01*
X183875236Y-63247904D01*
X183874486Y-63212796D01*
X183873706Y-63175056D01*
X183872901Y-63134986D01*
X183872078Y-63092888D01*
X183871245Y-63049062D01*
X183870410Y-63003958D01*
X183869133Y-62935396D01*
X183867888Y-62871592D01*
X183866660Y-62811958D01*
X183865433Y-62755904D01*
X183864192Y-62702841D01*
X183862920Y-62652180D01*
X183861603Y-62603334D01*
X183860225Y-62555711D01*
X183858770Y-62508725D01*
X183857222Y-62461785D01*
X183855566Y-62414302D01*
X183853787Y-62365689D01*
X183852799Y-62339547D01*
X183851279Y-62299752D01*
X183849568Y-62254939D01*
X183847676Y-62205437D01*
X183845618Y-62151571D01*
X183843404Y-62093669D01*
X183841048Y-62032058D01*
X183838562Y-61967063D01*
X183835959Y-61899012D01*
X183833251Y-61828232D01*
X183830451Y-61755049D01*
X183827570Y-61679790D01*
X183824623Y-61602782D01*
X183821621Y-61524351D01*
X183818577Y-61444825D01*
X183815503Y-61364530D01*
X183813473Y-61311516D01*
X183018330Y-61311516D01*
X182411688Y-61311516D01*
X182413114Y-61305500D01*
X182413864Y-61302168D01*
X182415697Y-61293940D01*
X182418543Y-61281140D01*
X182422327Y-61264093D01*
X182426980Y-61243123D01*
X182432428Y-61218555D01*
X182438601Y-61190714D01*
X182445425Y-61159924D01*
X182452829Y-61126510D01*
X182460741Y-61090796D01*
X182469089Y-61053107D01*
X182477801Y-61013768D01*
X182484987Y-60981316D01*
X182494927Y-60936419D01*
X182505856Y-60887059D01*
X182517605Y-60833996D01*
X182530006Y-60777988D01*
X182542890Y-60719794D01*
X182556091Y-60660173D01*
X182569440Y-60599883D01*
X182582769Y-60539683D01*
X182595909Y-60480331D01*
X182608694Y-60422587D01*
X182620956Y-60367209D01*
X182632525Y-60314956D01*
X182636680Y-60296190D01*
X182717633Y-59930558D01*
X181803840Y-59930558D01*
X181658760Y-60607000D01*
X181646044Y-60666290D01*
X181633603Y-60724297D01*
X181621485Y-60780799D01*
X181609739Y-60835572D01*
X181598411Y-60888392D01*
X181587550Y-60939035D01*
X181577204Y-60987278D01*
X181567421Y-61032898D01*
X181558249Y-61075669D01*
X181549735Y-61115370D01*
X181541928Y-61151777D01*
X181534876Y-61184665D01*
X181528627Y-61213810D01*
X181523228Y-61238991D01*
X181518728Y-61259982D01*
X181515174Y-61276560D01*
X181512615Y-61288502D01*
X181511098Y-61295583D01*
X181510695Y-61297470D01*
X181507709Y-61311499D01*
X181099492Y-61312184D01*
X181052527Y-61312267D01*
X181006617Y-61312355D01*
X180962087Y-61312448D01*
X180919261Y-61312545D01*
X180878464Y-61312644D01*
X180840022Y-61312746D01*
X180804258Y-61312847D01*
X180771497Y-61312949D01*
X180742066Y-61313049D01*
X180716287Y-61313148D01*
X180694487Y-61313243D01*
X180676990Y-61313334D01*
X180664120Y-61313420D01*
X180656204Y-61313500D01*
X180655179Y-61313516D01*
X180640013Y-61313577D01*
X180621322Y-61313331D01*
X180600919Y-61312819D01*
X180580616Y-61312083D01*
X180568285Y-61311502D01*
X180497554Y-61306298D01*
X180431001Y-61298258D01*
X180368207Y-61287279D01*
X180308754Y-61273260D01*
X180252223Y-61256096D01*
X180198196Y-61235685D01*
X180146255Y-61211925D01*
X180131137Y-61204192D01*
X180080041Y-61174634D01*
X180032524Y-61141476D01*
X179988768Y-61104922D01*
X179948957Y-61065182D01*
X179913272Y-61022460D01*
X179881897Y-60976965D01*
X179855013Y-60928902D01*
X179832804Y-60878479D01*
X179825213Y-60857527D01*
X179808206Y-60801363D01*
X179795434Y-60744859D01*
X179786747Y-60687073D01*
X179781995Y-60627063D01*
X179780922Y-60578926D01*
X179783053Y-60516302D01*
X179789390Y-60456927D01*
X179799928Y-60400815D01*
X179814662Y-60347978D01*
X179833588Y-60298429D01*
X179856699Y-60252179D01*
X179883991Y-60209243D01*
X179915458Y-60169631D01*
X179951096Y-60133357D01*
X179974727Y-60112997D01*
X180017973Y-60080981D01*
X180064699Y-60052154D01*
X180115040Y-60026469D01*
X180169135Y-60003878D01*
X180227120Y-59984334D01*
X180289132Y-59967790D01*
X180355307Y-59954197D01*
X180425784Y-59943510D01*
X180482727Y-59937263D01*
X180493560Y-59936334D01*
X180505456Y-59935476D01*
X180518625Y-59934685D01*
X180533279Y-59933961D01*
X180549626Y-59933301D01*
X180567879Y-59932703D01*
X180588248Y-59932165D01*
X180610943Y-59931684D01*
X180636175Y-59931259D01*
X180664154Y-59930888D01*
X180695092Y-59930568D01*
X180729198Y-59930298D01*
X180766684Y-59930075D01*
X180807760Y-59929898D01*
X180852636Y-59929763D01*
X180901523Y-59929670D01*
X180954632Y-59929615D01*
X181012174Y-59929598D01*
X181074358Y-59929615D01*
X181141396Y-59929666D01*
X181213499Y-59929747D01*
X181239536Y-59929781D01*
X181803840Y-59930558D01*
X182717633Y-59930558D01*
X182717927Y-59929232D01*
X182828165Y-59929227D01*
X182938404Y-59929221D01*
X182939625Y-59935237D01*
X182939918Y-59938586D01*
X182940487Y-59946963D01*
X182941315Y-59960054D01*
X182942384Y-59977546D01*
X182943674Y-59999128D01*
X182945168Y-60024487D01*
X182946848Y-60053311D01*
X182948696Y-60085287D01*
X182950693Y-60120103D01*
X182952822Y-60157446D01*
X182955064Y-60197004D01*
X182957400Y-60238464D01*
X182959814Y-60281515D01*
X182961193Y-60306211D01*
X182963765Y-60352336D01*
X182966344Y-60398526D01*
X182968903Y-60444334D01*
X182971419Y-60489315D01*
X182973865Y-60533021D01*
X182976216Y-60575007D01*
X182978449Y-60614827D01*
X182980537Y-60652033D01*
X182982456Y-60686179D01*
X182984180Y-60716819D01*
X182985686Y-60743507D01*
X182986946Y-60765796D01*
X182987938Y-60783241D01*
X182988027Y-60784800D01*
X182989331Y-60807719D01*
X182990884Y-60835150D01*
X182992639Y-60866268D01*
X182994551Y-60900245D01*
X182996573Y-60936256D01*
X182998658Y-60973473D01*
X183000761Y-61011071D01*
X183002834Y-61048222D01*
X183004831Y-61084101D01*
X183005211Y-61090937D01*
X183006994Y-61122912D01*
X183008717Y-61153614D01*
X183010354Y-61182580D01*
X183011878Y-61209347D01*
X183013263Y-61233453D01*
X183014481Y-61254434D01*
X183015506Y-61271829D01*
X183016311Y-61285174D01*
X183016870Y-61294006D01*
X183017119Y-61297479D01*
X183018330Y-61311516D01*
X183813473Y-61311516D01*
X183812411Y-61283792D01*
X183809315Y-61202940D01*
X183806227Y-61122298D01*
X183803159Y-61042195D01*
X183800124Y-60962956D01*
X183797134Y-60884909D01*
X183794202Y-60808380D01*
X183791340Y-60733697D01*
X183788561Y-60661185D01*
X183785878Y-60591171D01*
X183783302Y-60523983D01*
X183780847Y-60459947D01*
X183778524Y-60399390D01*
X183776347Y-60342639D01*
X183775411Y-60318242D01*
X183773318Y-60263633D01*
X183771093Y-60205491D01*
X183768765Y-60144554D01*
X183766362Y-60081563D01*
X183763912Y-60017258D01*
X183761443Y-59952378D01*
X183758983Y-59887663D01*
X183756560Y-59823852D01*
X183754203Y-59761685D01*
X183751940Y-59701903D01*
X183749798Y-59645244D01*
X183747805Y-59592448D01*
X183745991Y-59544255D01*
X183745989Y-59544211D01*
X183744339Y-59500492D01*
X183742725Y-59458050D01*
X183741160Y-59417212D01*
X183739656Y-59378306D01*
X183738228Y-59341661D01*
X183736888Y-59307602D01*
X183735649Y-59276460D01*
X183734524Y-59248560D01*
X183733527Y-59224231D01*
X183732670Y-59203800D01*
X183731966Y-59187596D01*
X183731429Y-59175946D01*
X183731071Y-59169177D01*
X183730980Y-59167890D01*
X183729491Y-59151179D01*
X182076698Y-59151195D01*
X181957577Y-59151200D01*
X181842177Y-59151215D01*
X181730562Y-59151237D01*
X181622798Y-59151268D01*
X181518951Y-59151308D01*
X181419087Y-59151355D01*
X181323271Y-59151411D01*
X181231568Y-59151475D01*
X181144044Y-59151547D01*
X181060764Y-59151626D01*
X180981795Y-59151714D01*
X180907201Y-59151809D01*
X180837048Y-59151911D01*
X180771402Y-59152021D01*
X180710328Y-59152138D01*
X180653892Y-59152263D01*
X180602159Y-59152394D01*
X180555194Y-59152533D01*
X180513064Y-59152678D01*
X180475834Y-59152830D01*
X180443569Y-59152989D01*
X180416335Y-59153155D01*
X180394197Y-59153327D01*
X180377221Y-59153506D01*
X180365472Y-59153690D01*
X180359737Y-59153849D01*
X180252350Y-59159533D01*
X180149532Y-59167588D01*
X180051041Y-59178050D01*
X179956635Y-59190956D01*
X179866072Y-59206342D01*
X179779109Y-59224245D01*
X179695505Y-59244701D01*
X179623137Y-59265263D01*
X179538298Y-59293224D01*
X179457842Y-59324247D01*
X179381768Y-59358334D01*
X179310075Y-59395488D01*
X179242760Y-59435711D01*
X179179822Y-59479005D01*
X179121260Y-59525373D01*
X179067070Y-59574818D01*
X179017253Y-59627340D01*
X178971806Y-59682943D01*
X178930726Y-59741629D01*
X178894014Y-59803400D01*
X178861667Y-59868259D01*
X178833682Y-59936207D01*
X178810059Y-60007248D01*
X178790796Y-60081383D01*
X178775892Y-60158616D01*
X178765343Y-60238947D01*
X178759149Y-60322380D01*
X178757308Y-60408916D01*
X178757637Y-60437221D01*
X178761602Y-60527065D01*
X178769972Y-60613912D01*
X178782770Y-60697828D01*
X178800017Y-60778878D01*
X178821736Y-60857127D01*
X178847947Y-60932642D01*
X178878674Y-61005488D01*
X178913937Y-61075731D01*
X178953760Y-61143436D01*
X178998163Y-61208668D01*
X179029202Y-61249409D01*
X179041185Y-61263696D01*
X179056458Y-61280684D01*
X179074242Y-61299603D01*
X179093761Y-61319679D01*
X179114237Y-61340144D01*
X179134892Y-61360225D01*
X179154951Y-61379150D01*
X179173635Y-61396150D01*
X179190167Y-61410452D01*
X179197719Y-61416617D01*
X179255336Y-61459148D01*
X179316635Y-61498203D01*
X179380937Y-61533402D01*
X179447563Y-61564364D01*
X179494765Y-61583144D01*
X179522265Y-61593344D01*
X179480874Y-61601823D01*
X179402735Y-61620406D01*
X179326606Y-61643690D01*
X179252748Y-61671558D01*
X179181421Y-61703895D01*
X179112887Y-61740587D01*
X179047407Y-61781516D01*
X179001506Y-61814138D01*
X178941723Y-61862247D01*
X178885815Y-61914029D01*
X178833823Y-61969430D01*
X178785785Y-62028398D01*
X178741740Y-62090881D01*
X178701726Y-62156827D01*
X178665783Y-62226183D01*
X178633949Y-62298897D01*
X178625867Y-62319614D01*
X178602496Y-62388149D01*
X178583321Y-62459755D01*
X178568339Y-62534470D01*
X178557545Y-62612328D01*
X178550938Y-62693368D01*
X178548513Y-62777623D01*
X178550267Y-62865131D01*
X178556197Y-62955928D01*
X178561905Y-63013316D01*
X178574447Y-63104465D01*
X178591329Y-63192522D01*
X178612565Y-63277541D01*
X178638172Y-63359574D01*
X178668163Y-63438676D01*
X178702556Y-63514900D01*
X178707502Y-63524903D01*
X178740432Y-63587059D01*
X178775210Y-63645136D01*
X178812505Y-63700052D01*
X178852985Y-63752721D01*
X178897320Y-63804060D01*
X178946178Y-63854984D01*
X178955018Y-63863702D01*
X179015429Y-63919155D01*
X179080182Y-63971557D01*
X179149212Y-64020883D01*
X179222455Y-64067109D01*
X179299844Y-64110213D01*
X179381316Y-64150168D01*
X179466804Y-64186954D01*
X179556244Y-64220544D01*
X179649572Y-64250916D01*
X179746721Y-64278046D01*
X179847627Y-64301911D01*
X179952225Y-64322485D01*
X180060450Y-64339747D01*
X180172236Y-64353671D01*
X180287519Y-64364234D01*
X180334337Y-64367496D01*
X180349367Y-64368440D01*
X180363802Y-64369314D01*
X180377890Y-64370122D01*
X180391875Y-64370865D01*
X180406005Y-64371549D01*
X180420524Y-64372175D01*
X180435680Y-64372747D01*
X180451717Y-64373269D01*
X180468882Y-64373742D01*
X180487421Y-64374171D01*
X180507580Y-64374559D01*
X180529604Y-64374908D01*
X180553741Y-64375222D01*
X180580235Y-64375504D01*
X180609333Y-64375757D01*
X180641280Y-64375985D01*
X180676323Y-64376190D01*
X180714708Y-64376375D01*
X180756681Y-64376545D01*
X180802487Y-64376701D01*
X180852373Y-64376848D01*
X180906585Y-64376987D01*
X180965368Y-64377123D01*
X181028969Y-64377259D01*
X181097633Y-64377397D01*
X181108660Y-64377419D01*
X181731920Y-64378642D01*
X181737618Y-64353705D01*
X181738633Y-64349185D01*
X181740765Y-64339615D01*
X181743978Y-64325167D01*
X181748233Y-64306011D01*
X181753493Y-64282320D01*
X181759719Y-64254263D01*
X181766873Y-64222014D01*
X181774917Y-64185741D01*
X181783815Y-64145618D01*
X181793526Y-64101814D01*
X181804015Y-64054502D01*
X181815242Y-64003853D01*
X181827170Y-63950037D01*
X181839761Y-63893226D01*
X181852977Y-63833592D01*
X181866779Y-63771304D01*
X181881131Y-63706536D01*
X181895994Y-63639457D01*
X181911330Y-63570240D01*
X181927101Y-63499054D01*
X181943269Y-63426072D01*
X181959797Y-63351465D01*
X181976646Y-63275404D01*
X181993779Y-63198061D01*
X182011157Y-63119605D01*
X182028742Y-63040209D01*
X182046498Y-62960044D01*
X182064385Y-62879282D01*
X182082365Y-62798092D01*
X182100402Y-62716647D01*
X182118456Y-62635118D01*
X182136491Y-62553675D01*
X182154467Y-62472491D01*
X182164663Y-62426442D01*
X182173430Y-62386854D01*
X182181986Y-62348230D01*
X182190247Y-62310951D01*
X182198128Y-62275395D01*
X182205546Y-62241944D01*
X182212416Y-62210976D01*
X182218654Y-62182873D01*
X182224175Y-62158013D01*
X182228895Y-62136777D01*
X182232729Y-62119544D01*
X182235595Y-62106695D01*
X182237406Y-62098610D01*
X182237639Y-62097579D01*
X182245199Y-62064158D01*
X182265696Y-62064124D01*
X181346518Y-62064124D01*
X181341558Y-62086867D01*
X181340582Y-62091387D01*
X181338532Y-62100916D01*
X181335454Y-62115237D01*
X181331396Y-62134131D01*
X181326405Y-62157380D01*
X181320527Y-62184765D01*
X181313809Y-62216068D01*
X181306299Y-62251070D01*
X181298042Y-62289552D01*
X181289086Y-62331297D01*
X181279478Y-62376086D01*
X181269265Y-62423701D01*
X181258493Y-62473922D01*
X181247209Y-62526532D01*
X181235461Y-62581311D01*
X181223294Y-62638043D01*
X181210757Y-62696507D01*
X181197895Y-62756486D01*
X181184756Y-62817761D01*
X181180376Y-62838190D01*
X181167207Y-62899594D01*
X181154325Y-62959649D01*
X181141773Y-63018143D01*
X181129599Y-63074865D01*
X181117846Y-63129604D01*
X181106560Y-63182149D01*
X181095787Y-63232289D01*
X181085572Y-63279814D01*
X181075961Y-63324511D01*
X181066998Y-63366172D01*
X181058730Y-63404583D01*
X181051201Y-63439535D01*
X181044458Y-63470817D01*
X181038544Y-63498217D01*
X181033507Y-63521524D01*
X181029391Y-63540529D01*
X181026241Y-63555019D01*
X181024103Y-63564783D01*
X181023023Y-63569612D01*
X181022898Y-63570111D01*
X181020090Y-63570637D01*
X181012366Y-63571122D01*
X181000154Y-63571564D01*
X180983885Y-63571963D01*
X180963989Y-63572319D01*
X180940896Y-63572630D01*
X180915036Y-63572898D01*
X180886839Y-63573120D01*
X180856736Y-63573297D01*
X180825156Y-63573428D01*
X180792529Y-63573513D01*
X180759285Y-63573550D01*
X180725855Y-63573541D01*
X180692668Y-63573483D01*
X180660155Y-63573377D01*
X180628746Y-63573222D01*
X180598870Y-63573018D01*
X180570957Y-63572764D01*
X180545439Y-63572460D01*
X180522744Y-63572104D01*
X180503303Y-63571698D01*
X180487546Y-63571239D01*
X180476043Y-63570736D01*
X180403041Y-63565063D01*
X180334084Y-63556441D01*
X180268680Y-63544748D01*
X180206333Y-63529863D01*
X180146551Y-63511662D01*
X180088839Y-63490024D01*
X180032704Y-63464827D01*
X180017506Y-63457272D01*
X179960571Y-63425737D01*
X179907957Y-63391090D01*
X179859579Y-63353246D01*
X179815349Y-63312121D01*
X179775182Y-63267630D01*
X179738990Y-63219687D01*
X179706687Y-63168209D01*
X179688822Y-63134969D01*
X179667404Y-63088941D01*
X179649525Y-63042242D01*
X179634834Y-62993748D01*
X179622978Y-62942335D01*
X179615917Y-62902358D01*
X179614062Y-62886710D01*
X179612613Y-62866766D01*
X179611571Y-62843564D01*
X179610933Y-62818140D01*
X179610701Y-62791531D01*
X179610872Y-62764774D01*
X179611447Y-62738905D01*
X179612425Y-62714960D01*
X179613804Y-62693978D01*
X179615586Y-62676994D01*
X179616053Y-62673758D01*
X179627533Y-62614775D01*
X179643333Y-62558903D01*
X179663512Y-62506019D01*
X179688133Y-62456001D01*
X179717256Y-62408726D01*
X179750942Y-62364070D01*
X179789252Y-62321911D01*
X179791717Y-62319441D01*
X179832628Y-62281926D01*
X179877022Y-62247538D01*
X179925000Y-62216244D01*
X179976662Y-62188010D01*
X180032107Y-62162801D01*
X180091437Y-62140584D01*
X180154751Y-62121325D01*
X180222148Y-62104990D01*
X180293730Y-62091545D01*
X180369596Y-62080957D01*
X180449846Y-62073191D01*
X180533527Y-62068257D01*
X180543989Y-62067929D01*
X180559424Y-62067602D01*
X180579454Y-62067278D01*
X180603705Y-62066962D01*
X180631802Y-62066655D01*
X180663367Y-62066361D01*
X180698027Y-62066082D01*
X180735405Y-62065822D01*
X180775125Y-62065583D01*
X180816813Y-62065368D01*
X180860092Y-62065181D01*
X180904587Y-62065024D01*
X180949923Y-62064899D01*
X180972107Y-62064852D01*
X181346518Y-62064124D01*
X182265696Y-62064124D01*
X183061495Y-62062804D01*
X183061657Y-62078186D01*
X183061818Y-62081885D01*
X183062273Y-62090746D01*
X183063013Y-62104594D01*
X183064026Y-62123252D01*
X183065304Y-62146545D01*
X183066836Y-62174297D01*
X183068613Y-62206331D01*
X183070624Y-62242472D01*
X183072860Y-62282543D01*
X183075311Y-62326369D01*
X183077967Y-62373773D01*
X183080818Y-62424579D01*
X183083854Y-62478612D01*
X183087066Y-62535695D01*
X183090443Y-62595653D01*
X183093975Y-62658308D01*
X183097653Y-62723486D01*
X183101467Y-62791010D01*
X183105407Y-62860704D01*
X183109463Y-62932393D01*
X183113625Y-63005899D01*
X183117883Y-63081048D01*
X183122227Y-63157662D01*
X183126553Y-63233895D01*
X183191289Y-64374221D01*
X183769204Y-64374896D01*
X184347119Y-64375570D01*
X184349897Y-64366875D01*
X184356110Y-64347435D01*
X184363861Y-64323188D01*
X184373060Y-64294419D01*
X184383615Y-64261414D01*
X184395433Y-64224459D01*
X184408425Y-64183838D01*
X184422499Y-64139837D01*
X184437564Y-64092742D01*
X184453527Y-64042838D01*
X184470298Y-63990412D01*
X184487786Y-63935747D01*
X184505898Y-63879131D01*
X184524544Y-63820849D01*
X184543633Y-63761185D01*
X184563073Y-63700426D01*
X184582772Y-63638857D01*
X184602640Y-63576764D01*
X184622584Y-63514432D01*
X184642515Y-63452146D01*
X184662339Y-63390193D01*
X184681967Y-63328858D01*
X184685832Y-63316779D01*
X184706365Y-63252604D01*
X184725355Y-63193219D01*
X184742895Y-63138322D01*
X184759078Y-63087614D01*
X184773998Y-63040793D01*
X184787747Y-62997558D01*
X184800420Y-62957608D01*
X184812109Y-62920643D01*
X184822907Y-62886361D01*
X184832908Y-62854461D01*
X184842205Y-62824643D01*
X184850891Y-62796606D01*
X184859059Y-62770048D01*
X184866803Y-62744669D01*
X184874216Y-62720167D01*
X184881391Y-62696243D01*
X184888421Y-62672594D01*
X184895399Y-62648920D01*
X184902419Y-62624920D01*
X184909574Y-62600293D01*
X184916957Y-62574739D01*
X184924662Y-62547955D01*
X184932781Y-62519642D01*
X184933055Y-62518684D01*
X184948350Y-62465284D01*
X184962241Y-62416788D01*
X184974798Y-62372962D01*
X184986089Y-62333569D01*
X184996181Y-62298374D01*
X185005145Y-62267140D01*
X185013048Y-62239632D01*
X185019959Y-62215614D01*
X185025945Y-62194849D01*
X185031077Y-62177103D01*
X185035421Y-62162139D01*
X185039047Y-62149722D01*
X185042023Y-62139615D01*
X185044417Y-62131583D01*
X185046298Y-62125390D01*
X185047735Y-62120799D01*
X185048795Y-62117576D01*
X185049547Y-62115484D01*
X185050061Y-62114287D01*
X185050403Y-62113750D01*
X185050625Y-62113636D01*
X185051575Y-62116141D01*
X185053757Y-62123324D01*
X185057034Y-62134690D01*
X185061269Y-62149748D01*
X185066324Y-62168006D01*
X185072062Y-62188971D01*
X185078346Y-62212150D01*
X185085040Y-62237051D01*
X185086178Y-62241304D01*
X185092637Y-62265461D01*
X185100275Y-62294010D01*
X185108884Y-62326179D01*
X185118258Y-62361196D01*
X185128189Y-62398289D01*
X185138471Y-62436685D01*
X185148898Y-62475612D01*
X185159261Y-62514297D01*
X185169356Y-62551968D01*
X185176200Y-62577505D01*
X185232097Y-62786053D01*
X185375556Y-63236569D01*
X185392744Y-63290547D01*
X185410724Y-63347017D01*
X185429311Y-63405399D01*
X185448322Y-63465119D01*
X185467575Y-63525598D01*
X185486884Y-63586260D01*
X185506066Y-63646528D01*
X185524939Y-63705825D01*
X185543317Y-63763574D01*
X185561018Y-63819197D01*
X185577858Y-63872119D01*
X185593653Y-63921762D01*
X185608219Y-63967548D01*
X185621374Y-64008902D01*
X185623189Y-64014611D01*
X185636156Y-64055374D01*
X185648742Y-64094934D01*
X185660844Y-64132968D01*
X185672361Y-64169154D01*
X185683190Y-64203171D01*
X185693228Y-64234698D01*
X185702373Y-64263411D01*
X185710522Y-64288991D01*
X185717574Y-64311115D01*
X185723425Y-64329460D01*
X185727973Y-64343707D01*
X185731116Y-64353533D01*
X185732751Y-64358616D01*
X185732826Y-64358847D01*
X185738289Y-64375558D01*
X186844656Y-64375558D01*
X186845858Y-64369542D01*
X186846238Y-64365725D01*
X186846863Y-64357116D01*
X186847701Y-64344263D01*
X186848716Y-64327715D01*
X186849878Y-64308020D01*
X186851153Y-64285727D01*
X186852507Y-64261384D01*
X186853909Y-64235539D01*
X186853928Y-64235190D01*
X186854574Y-64223154D01*
X186855299Y-64209725D01*
X186856111Y-64194771D01*
X186857017Y-64178165D01*
X186858023Y-64159776D01*
X186859137Y-64139475D01*
X186860366Y-64117134D01*
X186861718Y-64092622D01*
X186863199Y-64065810D01*
X186864817Y-64036570D01*
X186866579Y-64004771D01*
X186868492Y-63970285D01*
X186870564Y-63932982D01*
X186872801Y-63892733D01*
X186875210Y-63849408D01*
X186877800Y-63802879D01*
X186880577Y-63753016D01*
X186883548Y-63699689D01*
X186886720Y-63642769D01*
X186890102Y-63582128D01*
X186893699Y-63517635D01*
X186897519Y-63449161D01*
X186901570Y-63376578D01*
X186905858Y-63299755D01*
X186910391Y-63218564D01*
X186915176Y-63132875D01*
X186920220Y-63042559D01*
X186925530Y-62947486D01*
X186931114Y-62847527D01*
X186936978Y-62742554D01*
X186943131Y-62632436D01*
X186946349Y-62574832D01*
X186948420Y-62537777D01*
X186950450Y-62501438D01*
X186952450Y-62465640D01*
X186954430Y-62430210D01*
X186956398Y-62394974D01*
X186958366Y-62359759D01*
X186960341Y-62324391D01*
X186962335Y-62288696D01*
X186964357Y-62252500D01*
X186966417Y-62215630D01*
X186968523Y-62177913D01*
X186970687Y-62139174D01*
X186972917Y-62099239D01*
X186975224Y-62057936D01*
X186977617Y-62015090D01*
X186980106Y-61970528D01*
X186982700Y-61924076D01*
X186985409Y-61875560D01*
X186988243Y-61824807D01*
X186991211Y-61771643D01*
X186994324Y-61715895D01*
X186997591Y-61657388D01*
X187001022Y-61595949D01*
X187004625Y-61531404D01*
X187008412Y-61463581D01*
X187012392Y-61392304D01*
X187016574Y-61317400D01*
X187020968Y-61238696D01*
X187025584Y-61156018D01*
X187030432Y-61069192D01*
X187035521Y-60978044D01*
X187040861Y-60882402D01*
X187046461Y-60782091D01*
X187052332Y-60676937D01*
X187058483Y-60566767D01*
X187063999Y-60467969D01*
X187067334Y-60408236D01*
X187070814Y-60345909D01*
X187074408Y-60281554D01*
X187078084Y-60215738D01*
X187081811Y-60149027D01*
X187085556Y-60081989D01*
X187089288Y-60015190D01*
X187092976Y-59949198D01*
X187096587Y-59884578D01*
X187100090Y-59821899D01*
X187103454Y-59761726D01*
X187106646Y-59704626D01*
X187109635Y-59651168D01*
X187112389Y-59601916D01*
X187114869Y-59557579D01*
X187117376Y-59512682D01*
X187119799Y-59469113D01*
X187122122Y-59427185D01*
X187124326Y-59387212D01*
X187126397Y-59349504D01*
X187128315Y-59314375D01*
X187130066Y-59282138D01*
X187131631Y-59253105D01*
X187132994Y-59227589D01*
X187134138Y-59205902D01*
X187135045Y-59188357D01*
X187135700Y-59175266D01*
X187136085Y-59166943D01*
X187136187Y-59163879D01*
X187136190Y-59151179D01*
X186269916Y-59151179D01*
X186269916Y-59158569D01*
G04 #@! TD*
M02*
